<?xml version="1.0" encoding="UTF-8" standalone="no"?>
<!-- Created with Inkscape (http://www.inkscape.org/) -->

<svg
   xmlns:dc="http://purl.org/dc/elements/1.1/"
   xmlns:cc="http://creativecommons.org/ns#"
   xmlns:rdf="http://www.w3.org/1999/02/22-rdf-syntax-ns#"
   xmlns:svg="http://www.w3.org/2000/svg"
   xmlns="http://www.w3.org/2000/svg"
   xmlns:xlink="http://www.w3.org/1999/xlink"
   xmlns:sodipodi="http://sodipodi.sourceforge.net/DTD/sodipodi-0.dtd"
   xmlns:inkscape="http://www.inkscape.org/namespaces/inkscape"
   version="1.0"
   width="96"
   height="96"
   id="svg2408"
   inkscape:version="0.48.4 r9939"
   sodipodi:docname="progs_vlc.svg">
  <sodipodi:namedview
     pagecolor="#ffffff"
     bordercolor="#666666"
     borderopacity="1"
     objecttolerance="10"
     gridtolerance="10"
     guidetolerance="10"
     inkscape:pageopacity="0"
     inkscape:pageshadow="2"
     inkscape:window-width="842"
     inkscape:window-height="710"
     id="namedview192"
     showgrid="false"
     inkscape:zoom="2.4583333"
     inkscape:cx="31.113941"
     inkscape:cy="47.999999"
     inkscape:window-x="57"
     inkscape:window-y="456"
     inkscape:window-maximized="0"
     inkscape:current-layer="svg2408" />
  <defs
     id="defs2410">
    <linearGradient
       id="linearGradient4395">
      <stop
         id="stop4397"
         style="stop-color:#dd540e;stop-opacity:1"
         offset="0" />
      <stop
         id="stop4399"
         style="stop-color:#dd540e;stop-opacity:0"
         offset="1" />
    </linearGradient>
    <linearGradient
       id="linearGradient4251">
      <stop
         id="stop4253"
         style="stop-color:#ffcd65;stop-opacity:1"
         offset="0" />
      <stop
         id="stop4255"
         style="stop-color:#ffcd65;stop-opacity:0"
         offset="1" />
    </linearGradient>
    <linearGradient
       id="linearGradient4314">
      <stop
         id="stop4316"
         style="stop-color:#ffffff;stop-opacity:1"
         offset="0" />
      <stop
         id="stop4322"
         style="stop-color:#ffffff;stop-opacity:0.49803922"
         offset="0.30000001" />
      <stop
         id="stop4318"
         style="stop-color:#ffffff;stop-opacity:0"
         offset="1" />
    </linearGradient>
    <linearGradient
       x1="45.447727"
       y1="92.539597"
       x2="45.447727"
       y2="7.0165396"
       id="ButtonShadow"
       gradientUnits="userSpaceOnUse"
       gradientTransform="scale(1.0058652,0.994169)">
      <stop
         id="stop3750"
         style="stop-color:#000000;stop-opacity:1"
         offset="0" />
      <stop
         id="stop3752"
         style="stop-color:#000000;stop-opacity:0.58823532"
         offset="1" />
    </linearGradient>
    <linearGradient
       id="linearGradient3737">
      <stop
         id="stop3739"
         style="stop-color:#ffffff;stop-opacity:1"
         offset="0" />
      <stop
         id="stop3741"
         style="stop-color:#ffffff;stop-opacity:0"
         offset="1" />
    </linearGradient>
    <filter
       color-interpolation-filters="sRGB"
       id="filter3174">
      <feGaussianBlur
         id="feGaussianBlur3176"
         stdDeviation="1.71" />
    </filter>
    <linearGradient
       x1="36.357143"
       y1="6"
       x2="36.357143"
       y2="63.893143"
       id="linearGradient3188"
       xlink:href="#linearGradient3737"
       gradientUnits="userSpaceOnUse" />
    <filter
       x="-0.192"
       y="-0.192"
       width="1.3839999"
       height="1.3839999"
       color-interpolation-filters="sRGB"
       id="filter3794">
      <feGaussianBlur
         id="feGaussianBlur3796"
         stdDeviation="5.28" />
    </filter>
    <linearGradient
       x1="48"
       y1="20.220806"
       x2="48"
       y2="138.66119"
       id="linearGradient3613"
       xlink:href="#linearGradient3737"
       gradientUnits="userSpaceOnUse" />
    <radialGradient
       cx="48"
       cy="90.171875"
       r="42"
       fx="48"
       fy="90.171875"
       id="radialGradient3619"
       xlink:href="#linearGradient3737"
       gradientUnits="userSpaceOnUse"
       gradientTransform="matrix(1.1573129,0,0,0.99590774,-7.5510206,0.19713193)" />
    <clipPath
       id="clipPath3613">
      <rect
         width="84"
         height="84"
         rx="6"
         ry="6"
         x="6"
         y="6"
         id="rect3615"
         style="fill:#ffffff;fill-opacity:1;fill-rule:nonzero;stroke:none" />
    </clipPath>
    <linearGradient
       x1="48"
       y1="90"
       x2="48"
       y2="5.9877172"
       id="linearGradient3617"
       xlink:href="#linearGradient3187"
       gradientUnits="userSpaceOnUse" />
    <linearGradient
       id="linearGradient3187">
      <stop
         id="stop3189"
         style="stop-color:#282828;stop-opacity:1"
         offset="0" />
      <stop
         id="stop3191"
         style="stop-color:#5a5a5a;stop-opacity:1"
         offset="1" />
    </linearGradient>
    <linearGradient
       id="linearGradient3386">
      <stop
         id="stop3388"
         style="stop-color:#eeeeec;stop-opacity:1"
         offset="0" />
      <stop
         id="stop3390"
         style="stop-color:#eeeeec;stop-opacity:0"
         offset="1" />
    </linearGradient>
    <radialGradient
       cx="53.419292"
       cy="66.597893"
       r="47.724609"
       fx="53.419292"
       fy="66.597893"
       id="radialGradient3904"
       xlink:href="#linearGradient3386"
       gradientUnits="userSpaceOnUse"
       gradientTransform="matrix(1.0164118,0,0,1.2415079,-19.337623,-31.113008)" />
    <radialGradient
       cx="53.419292"
       cy="66.597893"
       r="47.724609"
       fx="53.419292"
       fy="66.597893"
       id="radialGradient3929"
       xlink:href="#linearGradient3386"
       gradientUnits="userSpaceOnUse"
       gradientTransform="matrix(1.0220726,0,0,1.2415079,-19.896446,-47.863009)" />
    <radialGradient
       cx="53.419292"
       cy="66.597893"
       r="47.724609"
       fx="53.419292"
       fy="66.597893"
       id="radialGradient3933"
       xlink:href="#linearGradient3386"
       gradientUnits="userSpaceOnUse"
       gradientTransform="matrix(1.4750367,0,0,0.847859,-55.736923,-9.8942437)" />
    <radialGradient
       cx="53.419292"
       cy="66.597893"
       r="47.724609"
       fx="53.419292"
       fy="66.597893"
       id="radialGradient3937"
       xlink:href="#linearGradient3386"
       gradientUnits="userSpaceOnUse"
       gradientTransform="matrix(1.4750367,0,0,0.847859,-77.736923,-9.8942437)" />
    <radialGradient
       cx="53.419292"
       cy="66.597893"
       r="47.724609"
       fx="53.419292"
       fy="66.597893"
       id="radialGradient4114"
       xlink:href="#linearGradient3386"
       gradientUnits="userSpaceOnUse"
       gradientTransform="matrix(1.0199392,0,0,0.85846172,-19.873341,-11.926904)" />
    <radialGradient
       cx="53.419292"
       cy="66.597893"
       r="47.724609"
       fx="53.419292"
       fy="66.597893"
       id="radialGradient4116"
       xlink:href="#linearGradient3386"
       gradientUnits="userSpaceOnUse"
       gradientTransform="matrix(1.0199392,0,0,0.85846172,-19.685841,-9.268213)" />
    <linearGradient
       id="linearGradient3299">
      <stop
         id="stop3301"
         style="stop-color:#dfdfdf;stop-opacity:1"
         offset="0" />
      <stop
         id="stop3303"
         style="stop-color:#434343;stop-opacity:1"
         offset="1" />
    </linearGradient>
    <linearGradient
       id="linearGradient3273">
      <stop
         id="stop3275"
         style="stop-color:#5d5d5d;stop-opacity:1"
         offset="0" />
      <stop
         id="stop3277"
         style="stop-color:#171717;stop-opacity:1"
         offset="1" />
    </linearGradient>
    <linearGradient
       id="linearGradient3289">
      <stop
         id="stop3291"
         style="stop-color:#919191;stop-opacity:1"
         offset="0" />
      <stop
         id="stop3293"
         style="stop-color:#232323;stop-opacity:1"
         offset="1" />
    </linearGradient>
    <linearGradient
       id="linearGradient3260"
       gradientUnits="userSpaceOnUse">
      <stop
         id="stop3262"
         style="stop-color:#000000;stop-opacity:1"
         offset="0" />
      <stop
         id="stop3266"
         style="stop-color:#000000;stop-opacity:0.3548387"
         offset="0.2" />
      <stop
         id="stop3268"
         style="stop-color:#000000;stop-opacity:0"
         offset="0.55254942" />
      <stop
         id="stop3264"
         style="stop-color:#000000;stop-opacity:0"
         offset="1" />
    </linearGradient>
    <linearGradient
       x1="43.476658"
       y1="26"
       x2="43.476658"
       y2="34.001266"
       id="linearGradient4262"
       xlink:href="#linearGradient3260"
       gradientUnits="userSpaceOnUse"
       gradientTransform="matrix(0.72413795,0,0,0.75,1.6551725,4.5)" />
    <linearGradient
       x1="48"
       y1="16"
       x2="48"
       y2="11.924657"
       id="linearGradient4310"
       xlink:href="#linearGradient3260"
       gradientUnits="userSpaceOnUse"
       gradientTransform="matrix(1,0,0,1.25,0,-4.5982122)" />
    <linearGradient
       x1="50.464287"
       y1="16.035713"
       x2="50.464287"
       y2="20.329885"
       id="linearGradient4320"
       xlink:href="#linearGradient4314"
       gradientUnits="userSpaceOnUse"
       gradientTransform="translate(0,-0.67856979)" />
    <linearGradient
       x1="48"
       y1="16"
       x2="48"
       y2="11.924657"
       id="linearGradient4326"
       xlink:href="#linearGradient3260"
       gradientUnits="userSpaceOnUse"
       gradientTransform="matrix(1,0,0,1.25,0,4.4017878)" />
    <linearGradient
       x1="11"
       y1="10.441942"
       x2="16"
       y2="24"
       id="linearGradient4371"
       xlink:href="#linearGradient3273"
       gradientUnits="userSpaceOnUse"
       gradientTransform="matrix(0.81330712,0,0,0.81132563,3.9935431,2.0281849)" />
    <linearGradient
       x1="13.125"
       y1="9.9419422"
       x2="19.25"
       y2="24.5"
       id="linearGradient4373"
       xlink:href="#linearGradient3289"
       gradientUnits="userSpaceOnUse"
       gradientTransform="matrix(0.81330712,0,0,0.81132563,3.9935431,2.0281849)" />
    <radialGradient
       cx="11.3125"
       cy="14.9375"
       r="1.4375"
       fx="11.3125"
       fy="14.9375"
       id="radialGradient4375"
       xlink:href="#linearGradient3299"
       gradientUnits="userSpaceOnUse" />
    <radialGradient
       cx="11.3125"
       cy="14.9375"
       r="1.4375"
       fx="11.3125"
       fy="14.9375"
       id="radialGradient4377"
       xlink:href="#linearGradient3299"
       gradientUnits="userSpaceOnUse" />
    <radialGradient
       cx="11.3125"
       cy="14.9375"
       r="1.4375"
       fx="11.3125"
       fy="14.9375"
       id="radialGradient4379"
       xlink:href="#linearGradient3299"
       gradientUnits="userSpaceOnUse" />
    <linearGradient
       x1="45.447727"
       y1="92.539597"
       x2="45.447727"
       y2="7.0165396"
       id="ButtonShadow-0"
       gradientUnits="userSpaceOnUse"
       gradientTransform="matrix(1.0058652,0,0,0.994169,100,0)">
      <stop
         id="stop3750-8"
         style="stop-color:#000000;stop-opacity:1"
         offset="0" />
      <stop
         id="stop3752-5"
         style="stop-color:#000000;stop-opacity:0.58823532"
         offset="1" />
    </linearGradient>
    <linearGradient
       x1="32.251034"
       y1="6.1317081"
       x2="32.251034"
       y2="90.238609"
       id="linearGradient3780"
       xlink:href="#ButtonShadow-0"
       gradientUnits="userSpaceOnUse"
       gradientTransform="matrix(1.0238095,0,0,1.0119048,-1.1428571,-98.071429)" />
    <linearGradient
       x1="32.251034"
       y1="6.1317081"
       x2="32.251034"
       y2="90.238609"
       id="linearGradient3772"
       xlink:href="#ButtonShadow-0"
       gradientUnits="userSpaceOnUse"
       gradientTransform="matrix(1.0238095,0,0,1.0119048,-1.1428571,-98.071429)" />
    <linearGradient
       x1="32.251034"
       y1="6.1317081"
       x2="32.251034"
       y2="90.238609"
       id="linearGradient3725"
       xlink:href="#ButtonShadow-0"
       gradientUnits="userSpaceOnUse"
       gradientTransform="matrix(1.0238095,0,0,1.0119048,-1.1428571,-98.071429)" />
    <linearGradient
       x1="32.251034"
       y1="6.1317081"
       x2="32.251034"
       y2="90.238609"
       id="linearGradient3721"
       xlink:href="#ButtonShadow-0"
       gradientUnits="userSpaceOnUse"
       gradientTransform="translate(0,-97)" />
    <linearGradient
       x1="32.251034"
       y1="6.1317081"
       x2="32.251034"
       y2="90.238609"
       id="linearGradient3811"
       xlink:href="#ButtonShadow-0"
       gradientUnits="userSpaceOnUse"
       gradientTransform="matrix(1.0238095,0,0,1.0119048,-1.1428571,-98.071429)" />
    <clipPath
       id="clipPath4833">
      <rect
         width="72.901031"
         height="72.901031"
         rx="5.2072163"
         ry="5.2072163"
         x="12.963713"
         y="3.8613114"
         id="rect4835"
         style="fill:url(#linearGradient4837);fill-opacity:1;fill-rule:nonzero;stroke:none;display:inline" />
    </clipPath>
    <filter
       color-interpolation-filters="sRGB"
       id="filter4839">
      <feGaussianBlur
         id="feGaussianBlur4841"
         stdDeviation="1.0679101" />
    </filter>
    <linearGradient
       id="linearGradient4797">
      <stop
         id="stop4799"
         style="stop-color:#000000;stop-opacity:1"
         offset="0" />
      <stop
         id="stop4801"
         style="stop-color:#000000;stop-opacity:0"
         offset="1" />
    </linearGradient>
    <linearGradient
       id="linearGradient4843">
      <stop
         id="stop4845"
         style="stop-color:#ff6600;stop-opacity:1"
         offset="0" />
      <stop
         id="stop4847"
         style="stop-color:#ff6600;stop-opacity:0"
         offset="1" />
    </linearGradient>
    <linearGradient
       id="linearGradient3183">
      <stop
         id="stop5163"
         style="stop-color:#c74900;stop-opacity:1"
         offset="0" />
      <stop
         id="stop3195"
         style="stop-color:#e8860e;stop-opacity:1"
         offset="0.20227151" />
      <stop
         id="stop3435"
         style="stop-color:#ffac24;stop-opacity:1"
         offset="0.51162791" />
      <stop
         id="stop3193"
         style="stop-color:#e8860e;stop-opacity:1"
         offset="0.75581396" />
      <stop
         id="stop3187"
         style="stop-color:#7a400e;stop-opacity:1"
         offset="1" />
    </linearGradient>
    <filter
       x="-0.039040156"
       y="-0.11534591"
       width="1.0780803"
       height="1.2306918"
       color-interpolation-filters="sRGB"
       id="filter3950">
      <feGaussianBlur
         id="feGaussianBlur3952"
         stdDeviation="0.53403609" />
    </filter>
    <linearGradient
       id="linearGradient4037">
      <stop
         id="stop4039"
         style="stop-color:#ea690e;stop-opacity:1"
         offset="0" />
      <stop
         id="stop4041"
         style="stop-color:#ea690e;stop-opacity:0"
         offset="1" />
    </linearGradient>
    <linearGradient
       id="linearGradient4029">
      <stop
         id="stop4031"
         style="stop-color:#a54a0a;stop-opacity:1"
         offset="0" />
      <stop
         id="stop4033-0"
         style="stop-color:#f78300;stop-opacity:0"
         offset="1" />
    </linearGradient>
    <linearGradient
       id="linearGradient556">
      <stop
         id="stop557"
         style="stop-color:#7d7d7d;stop-opacity:1"
         offset="0" />
      <stop
         id="stop8106"
         style="stop-color:#dddddd;stop-opacity:1"
         offset="0.25" />
      <stop
         id="stop8096"
         style="stop-color:#ffffff;stop-opacity:1"
         offset="0.5" />
      <stop
         id="stop8108"
         style="stop-color:#c2c2c2;stop-opacity:1"
         offset="0.75" />
      <stop
         id="stop558"
         style="stop-color:#868686;stop-opacity:1"
         offset="1" />
    </linearGradient>
    <linearGradient
       id="linearGradient3737-6">
      <stop
         id="stop3739-9"
         style="stop-color:#ffffff;stop-opacity:1"
         offset="0" />
      <stop
         id="stop3741-4"
         style="stop-color:#ffffff;stop-opacity:0"
         offset="1" />
    </linearGradient>
    <linearGradient
       id="linearGradient3997">
      <stop
         id="stop3999"
         style="stop-color:#ffffff;stop-opacity:0"
         offset="0" />
      <stop
         id="stop4001"
         style="stop-color:#ffffff;stop-opacity:0"
         offset="1" />
    </linearGradient>
    <filter
       color-interpolation-filters="sRGB"
       id="filter11385">
      <feGaussianBlur
         stdDeviation="0.45960596"
         id="feGaussianBlur11387" />
    </filter>
    <linearGradient
       id="linearGradient8076-3">
      <stop
         id="stop8078-1"
         style="stop-color:#cf6714;stop-opacity:1"
         offset="0" />
      <stop
         id="stop8080-3"
         style="stop-color:#d3790b;stop-opacity:1"
         offset="0.20227151" />
      <stop
         id="stop8082-8"
         style="stop-color:#f08300;stop-opacity:1"
         offset="0.51162791" />
      <stop
         id="stop8084-0"
         style="stop-color:#f3b230;stop-opacity:1"
         offset="0.7842077" />
      <stop
         id="stop8086-9"
         style="stop-color:#d24118;stop-opacity:0.92156863"
         offset="1" />
    </linearGradient>
    <linearGradient
       x1="22.068424"
       y1="29.046476"
       x2="22.244799"
       y2="46.707714"
       id="linearGradient4426"
       xlink:href="#linearGradient8076-3"
       gradientUnits="userSpaceOnUse"
       gradientTransform="translate(100,48)" />
    <linearGradient
       x1="123"
       y1="92"
       x2="123"
       y2="79"
       id="linearGradient4428"
       xlink:href="#linearGradient4251"
       gradientUnits="userSpaceOnUse" />
    <linearGradient
       x1="12.348506"
       y1="19.501543"
       x2="34.751446"
       y2="19.932304"
       id="linearGradient4430"
       xlink:href="#linearGradient3183"
       gradientUnits="userSpaceOnUse"
       gradientTransform="matrix(0.99860894,0,0,0.99948779,100.52731,46.756312)" />
    <linearGradient
       x1="14.862838"
       y1="21.635897"
       x2="21.070415"
       y2="22.724205"
       id="linearGradient4432"
       xlink:href="#linearGradient4037"
       gradientUnits="userSpaceOnUse"
       gradientTransform="matrix(0.99860894,0,0,0.99948779,100.52731,46.756312)" />
    <linearGradient
       x1="28.228096"
       y1="19.421204"
       x2="22.680347"
       y2="17.831375"
       id="linearGradient4434"
       xlink:href="#linearGradient4029"
       gradientUnits="userSpaceOnUse"
       gradientTransform="matrix(0.92575001,-0.37477137,0.37444179,0.92656479,97.066519,57.292598)" />
    <linearGradient
       x1="16.368952"
       y1="12.608516"
       x2="30.440506"
       y2="12.608516"
       id="linearGradient4436"
       xlink:href="#linearGradient556"
       gradientUnits="userSpaceOnUse" />
    <linearGradient
       x1="10.877795"
       y1="30.341204"
       x2="37.145557"
       y2="30.341204"
       id="linearGradient4438"
       xlink:href="#linearGradient556"
       gradientUnits="userSpaceOnUse" />
    <linearGradient
       x1="41.295063"
       y1="45.366104"
       x2="36.99176"
       y2="66.958115"
       id="linearGradient4440"
       xlink:href="#linearGradient3737-6"
       gradientUnits="userSpaceOnUse"
       gradientTransform="matrix(0.7824528,0,0,0.78314149,85.82458,33.076405)" />
    <linearGradient
       x1="39.522221"
       y1="54.331207"
       x2="36.99176"
       y2="66.958115"
       id="linearGradient4442"
       xlink:href="#linearGradient3997"
       gradientUnits="userSpaceOnUse"
       gradientTransform="matrix(0.7824528,0,0,0.78314149,85.82458,33.076405)" />
    <linearGradient
       x1="41.295063"
       y1="45.366104"
       x2="36.99176"
       y2="66.958115"
       id="linearGradient4444"
       xlink:href="#linearGradient3737-6"
       gradientUnits="userSpaceOnUse"
       gradientTransform="matrix(0.7824528,0,0,0.78314149,85.82458,33.076405)" />
    <linearGradient
       x1="39.522221"
       y1="54.331207"
       x2="36.99176"
       y2="66.958115"
       id="linearGradient4446"
       xlink:href="#linearGradient3997"
       gradientUnits="userSpaceOnUse"
       gradientTransform="matrix(0.7824528,0,0,0.78314149,85.82458,33.076405)" />
    <linearGradient
       x1="135.12328"
       y1="84.181084"
       x2="111.24557"
       y2="84.336212"
       id="linearGradient4448"
       xlink:href="#linearGradient4395"
       gradientUnits="userSpaceOnUse" />
    <linearGradient
       x1="56.821079"
       y1="51.17448"
       x2="75.256371"
       y2="29.961277"
       id="linearGradient4456"
       xlink:href="#linearGradient4797"
       gradientUnits="userSpaceOnUse" />
    <linearGradient
       x1="53.285545"
       y1="58.876896"
       x2="28.738491"
       y2="35.496246"
       id="linearGradient4458"
       xlink:href="#linearGradient4843"
       gradientUnits="userSpaceOnUse" />
    <radialGradient
       inkscape:collect="always"
       xlink:href="#linearGradient3737"
       id="radialGradient3171"
       gradientUnits="userSpaceOnUse"
       gradientTransform="matrix(1.1573129,0,0,0.99590774,-7.5510206,0.19713193)"
       cx="48"
       cy="90.171875"
       fx="48"
       fy="90.171875"
       r="42" />
    <linearGradient
       inkscape:collect="always"
       xlink:href="#linearGradient3737"
       id="linearGradient3173"
       gradientUnits="userSpaceOnUse"
       x1="48"
       y1="20.220806"
       x2="48"
       y2="138.66119" />
    <radialGradient
       inkscape:collect="always"
       xlink:href="#linearGradient3386"
       id="radialGradient3176"
       gradientUnits="userSpaceOnUse"
       gradientTransform="matrix(1.4750367,0,0,0.847859,-71.635228,81.2244)"
       cx="53.419292"
       cy="66.597893"
       fx="53.419292"
       fy="66.597893"
       r="47.724609" />
    <radialGradient
       inkscape:collect="always"
       xlink:href="#linearGradient3386"
       id="radialGradient3179"
       gradientUnits="userSpaceOnUse"
       gradientTransform="matrix(1.0199392,0,0,0.85846172,-13.771646,79.19174)"
       cx="53.419292"
       cy="66.597893"
       fx="53.419292"
       fy="66.597893"
       r="47.724609" />
    <radialGradient
       inkscape:collect="always"
       xlink:href="#linearGradient3386"
       id="radialGradient3182"
       gradientUnits="userSpaceOnUse"
       gradientTransform="matrix(1.4750367,0,0,0.847859,-49.635228,81.2244)"
       cx="53.419292"
       cy="66.597893"
       fx="53.419292"
       fy="66.597893"
       r="47.724609" />
    <radialGradient
       inkscape:collect="always"
       xlink:href="#linearGradient3386"
       id="radialGradient3185"
       gradientUnits="userSpaceOnUse"
       gradientTransform="matrix(1.0220726,0,0,1.2415079,-13.794751,43.255635)"
       cx="53.419292"
       cy="66.597893"
       fx="53.419292"
       fy="66.597893"
       r="47.724609" />
    <radialGradient
       inkscape:collect="always"
       xlink:href="#linearGradient3386"
       id="radialGradient3188"
       gradientUnits="userSpaceOnUse"
       gradientTransform="matrix(1.0164118,0,0,1.2415079,-13.235928,60.005636)"
       cx="53.419292"
       cy="66.597893"
       fx="53.419292"
       fy="66.597893"
       r="47.724609" />
    <radialGradient
       inkscape:collect="always"
       xlink:href="#linearGradient3386"
       id="radialGradient3191"
       gradientUnits="userSpaceOnUse"
       gradientTransform="matrix(1.0199392,0,0,0.85846172,-13.584146,81.850431)"
       cx="53.419292"
       cy="66.597893"
       fx="53.419292"
       fy="66.597893"
       r="47.724609" />
    <linearGradient
       inkscape:collect="always"
       xlink:href="#linearGradient3187"
       id="linearGradient3194"
       gradientUnits="userSpaceOnUse"
       x1="48"
       y1="90"
       x2="48"
       y2="5.9877172"
       gradientTransform="translate(-1.1608276e-7,0.40677959)" />
  </defs>
  <metadata
     id="metadata2413">
    <rdf:RDF>
      <cc:Work
         rdf:about="">
        <dc:format>image/svg+xml</dc:format>
        <dc:type
           rdf:resource="http://purl.org/dc/dcmitype/StillImage" />
        <dc:title></dc:title>
      </cc:Work>
    </rdf:RDF>
  </metadata>
  <g
     id="layer2"
     style="display:none">
    <rect
       width="86"
       height="85"
       rx="6"
       ry="6"
       x="5"
       y="7"
       id="rect3745"
       style="opacity:0.9;fill:url(#ButtonShadow);fill-opacity:1;fill-rule:nonzero;stroke:none;filter:url(#filter3174)" />
  </g>
  <g
     id="layer7"
     style="display:inline"
     inkscape:export-filename="E:\Dropbox\te_ndryshme\Programming\Git\TopeClient\Tope\graphics\progs_vlc.png"
     inkscape:export-xdpi="255.97804"
     inkscape:export-ydpi="255.97804">
    <path
       d="m 12,-95.03125 c -5.5110903,0 -10.03125,4.52016 -10.03125,10.03125 l 0,71 c 0,5.5110902 4.5201598,10.03125 10.03125,10.03125 l 72,0 c 5.51109,0 10.03125,-4.5201597 10.03125,-10.03125 l 0,-71 c 0,-5.51109 -4.52016,-10.03125 -10.03125,-10.03125 l -72,0 z"
       transform="scale(1,-1)"
       id="path3786"
       style="opacity:0.07999998;fill:url(#linearGradient3811);fill-opacity:1;fill-rule:nonzero;stroke:none;display:inline" />
    <path
       d="m 12,-94.03125 c -4.971633,0 -9.03125,4.059617 -9.03125,9.03125 l 0,71 c 0,4.9716329 4.0596171,9.03125 9.03125,9.03125 l 72,0 c 4.971633,0 9.03125,-4.059617 9.03125,-9.03125 l 0,-71 c 0,-4.971633 -4.059617,-9.03125 -9.03125,-9.03125 l -72,0 z"
       transform="scale(1,-1)"
       id="path3778"
       style="opacity:0.1;fill:url(#linearGradient3780);fill-opacity:1;fill-rule:nonzero;stroke:none;display:inline" />
    <path
       d="m 12,-93 c -4.4091333,0 -8,3.590867 -8,8 l 0,71 c 0,4.4091333 3.5908667,8 8,8 l 72,0 c 4.409133,0 8,-3.5908667 8,-8 l 0,-71 c 0,-4.409133 -3.590867,-8 -8,-8 l -72,0 z"
       transform="scale(1,-1)"
       id="path3770"
       style="opacity:0.2;fill:url(#linearGradient3772);fill-opacity:1;fill-rule:nonzero;stroke:none;display:inline" />
    <rect
       width="86"
       height="85"
       rx="7"
       ry="7"
       x="5"
       y="-92"
       transform="scale(1,-1)"
       id="rect3723"
       style="opacity:0.3;fill:url(#linearGradient3725);fill-opacity:1;fill-rule:nonzero;stroke:none;display:inline" />
    <rect
       width="84"
       height="84"
       rx="6"
       ry="6"
       x="6"
       y="-91"
       transform="scale(1,-1)"
       id="rect3716"
       style="opacity:0.45;fill:url(#linearGradient3721);fill-opacity:1;fill-rule:nonzero;stroke:none;display:inline" />
  </g>
  <rect
     style="fill:url(#linearGradient3194);fill-opacity:1;fill-rule:nonzero;stroke:none"
     id="rect2419"
     y="6.4067802"
     x="6"
     ry="6"
     rx="6"
     height="84"
     width="84"
     inkscape:export-filename="E:\Dropbox\te_ndryshme\Programming\Git\TopeClient\Tope\graphics\progs_vlc.png"
     inkscape:export-xdpi="255.97804"
     inkscape:export-ydpi="255.97804" />
  <path
     style="opacity:0.2;fill:url(#radialGradient3171);fill-opacity:1;fill-rule:nonzero;stroke:none"
     id="path3615"
     inkscape:connector-curvature="0"
     d="M 12,90 C 8.676,90 6,87.324 6,84 L 6,82 6,14 6,12 c 0,-0.334721 0.04135,-0.6507 0.09375,-0.96875 0.0487,-0.295596 0.09704,-0.596915 0.1875,-0.875 C 6.29113,10.12587 6.302142,10.09265 6.3125,10.0625 6.411365,9.774729 6.5473802,9.515048 6.6875,9.25 6.8320918,8.976493 7.0031161,8.714385 7.1875,8.46875 7.3718839,8.223115 7.5612765,7.995278 7.78125,7.78125 8.221197,7.353194 8.72416,6.966724 9.28125,6.6875 9.559795,6.547888 9.8547231,6.440553 10.15625,6.34375 9.9000482,6.443972 9.6695391,6.580022 9.4375,6.71875 c -0.00741,0.0044 -0.023866,-0.0045 -0.03125,0 -0.031933,0.0193 -0.062293,0.04251 -0.09375,0.0625 -0.120395,0.0767 -0.2310226,0.163513 -0.34375,0.25 -0.1061728,0.0808 -0.2132809,0.161112 -0.3125,0.25 C 8.4783201,7.442683 8.3087904,7.626638 8.15625,7.8125 8.0486711,7.942755 7.9378561,8.077785 7.84375,8.21875 7.818661,8.25713 7.805304,8.30462 7.78125,8.34375 7.716487,8.446782 7.6510225,8.548267 7.59375,8.65625 7.4927417,8.850956 7.3880752,9.071951 7.3125,9.28125 7.30454,9.30306 7.288911,9.3218 7.28125,9.34375 7.2494249,9.4357 7.2454455,9.530581 7.21875,9.625 7.1884177,9.731618 7.1483606,9.828031 7.125,9.9375 7.0521214,10.279012 7,10.635705 7,11 l 0,2 0,68 0,2 c 0,2.781848 2.2181517,5 5,5 l 2,0 68,0 2,0 c 2.781848,0 5,-2.218152 5,-5 l 0,-2 0,-68 0,-2 C 89,10.635705 88.94788,10.279012 88.875,9.9375 88.83085,9.730607 88.78662,9.539842 88.71875,9.34375 88.71105,9.3218 88.69545,9.30306 88.6875,9.28125 88.62476,9.107511 88.549117,8.913801 88.46875,8.75 88.42717,8.6672 88.38971,8.580046 88.34375,8.5 88.28915,8.40279 88.216976,8.31165 88.15625,8.21875 88.06214,8.077785 87.951329,7.942755 87.84375,7.8125 87.700576,7.63805 87.540609,7.465502 87.375,7.3125 87.36383,7.3023 87.35502,7.29135 87.34375,7.28125 87.205364,7.155694 87.058659,7.046814 86.90625,6.9375 86.803679,6.86435 86.701932,6.784136 86.59375,6.71875 c -0.0074,-0.0045 -0.02384,0.0044 -0.03125,0 -0.232039,-0.138728 -0.462548,-0.274778 -0.71875,-0.375 0.301527,0.0968 0.596455,0.204138 0.875,0.34375 0.55709,0.279224 1.060053,0.665694 1.5,1.09375 0.219973,0.214028 0.409366,0.441865 0.59375,0.6875 0.184384,0.245635 0.355408,0.507743 0.5,0.78125 0.14012,0.265048 0.276135,0.524729 0.375,0.8125 0.01041,0.03078 0.02133,0.06274 0.03125,0.09375 0.09046,0.278085 0.1388,0.579404 0.1875,0.875 C 89.95865,11.3493 90,11.665279 90,12 l 0,2 0,68 0,2 c 0,3.324 -2.676,6 -6,6 l -72,0 z"
     inkscape:export-filename="E:\Dropbox\te_ndryshme\Programming\Git\TopeClient\Tope\graphics\progs_vlc.png"
     inkscape:export-xdpi="255.97804"
     inkscape:export-ydpi="255.97804" />
  <rect
     style="opacity:0.1;fill:url(#linearGradient3173);fill-opacity:1;fill-rule:nonzero;stroke:#ffffff;stroke-width:0.5;stroke-linecap:round;stroke-linejoin:miter;stroke-miterlimit:4;stroke-opacity:1;stroke-dasharray:none;stroke-dashoffset:0;filter:url(#filter3794)"
     id="rect3171"
     clip-path="url(#clipPath3613)"
     y="15"
     x="15"
     ry="12"
     rx="12"
     height="66"
     width="66"
     transform="translate(0,-0.81355937)"
     inkscape:export-filename="E:\Dropbox\te_ndryshme\Programming\Git\TopeClient\Tope\graphics\progs_vlc.png"
     inkscape:export-xdpi="255.97804"
     inkscape:export-ydpi="255.97804" />
  <g
     id="layer4"
     style="display:inline"
     inkscape:export-filename="E:\Dropbox\te_ndryshme\Programming\Git\TopeClient\Tope\graphics\progs_vlc.png"
     inkscape:export-xdpi="255.97804"
     inkscape:export-ydpi="255.97804">
    <path
       d="M 12,6 C 8.676,6 6,8.676 6,12 l 0,2 0,68 0,2 c 0,0.334721 0.04135,0.6507 0.09375,0.96875 0.0487,0.295596 0.09704,0.596915 0.1875,0.875 0.00988,0.03038 0.020892,0.0636 0.03125,0.09375 0.098865,0.287771 0.2348802,0.547452 0.375,0.8125 0.1445918,0.273507 0.3156161,0.535615 0.5,0.78125 0.1843839,0.245635 0.3737765,0.473472 0.59375,0.6875 0.439947,0.428056 0.94291,0.814526 1.5,1.09375 0.278545,0.139612 0.5734731,0.246947 0.875,0.34375 -0.2562018,-0.100222 -0.4867109,-0.236272 -0.71875,-0.375 -0.00741,-0.0044 -0.023866,0.0045 -0.03125,0 -0.031933,-0.0193 -0.062293,-0.04251 -0.09375,-0.0625 -0.120395,-0.0767 -0.2310226,-0.163513 -0.34375,-0.25 -0.1061728,-0.0808 -0.2132809,-0.161112 -0.3125,-0.25 C 8.4783201,88.557317 8.3087904,88.373362 8.15625,88.1875 8.0486711,88.057245 7.9378561,87.922215 7.84375,87.78125 7.818661,87.74287 7.805304,87.69538 7.78125,87.65625 7.716487,87.553218 7.6510225,87.451733 7.59375,87.34375 7.4927417,87.149044 7.3880752,86.928049 7.3125,86.71875 7.30454,86.69694 7.288911,86.6782 7.28125,86.65625 7.2494249,86.5643 7.2454455,86.469419 7.21875,86.375 7.1884177,86.268382 7.1483606,86.171969 7.125,86.0625 7.0521214,85.720988 7,85.364295 7,85 L 7,83 7,15 7,13 C 7,10.218152 9.2181517,8 12,8 l 2,0 68,0 2,0 c 2.781848,0 5,2.218152 5,5 l 0,2 0,68 0,2 c 0,0.364295 -0.05212,0.720988 -0.125,1.0625 -0.04415,0.206893 -0.08838,0.397658 -0.15625,0.59375 -0.0077,0.02195 -0.0233,0.04069 -0.03125,0.0625 -0.06274,0.173739 -0.138383,0.367449 -0.21875,0.53125 -0.04158,0.0828 -0.07904,0.169954 -0.125,0.25 -0.0546,0.09721 -0.126774,0.18835 -0.1875,0.28125 -0.09411,0.140965 -0.204921,0.275995 -0.3125,0.40625 -0.143174,0.17445 -0.303141,0.346998 -0.46875,0.5 -0.01117,0.0102 -0.01998,0.02115 -0.03125,0.03125 -0.138386,0.125556 -0.285091,0.234436 -0.4375,0.34375 -0.102571,0.07315 -0.204318,0.153364 -0.3125,0.21875 -0.0074,0.0045 -0.02384,-0.0044 -0.03125,0 -0.232039,0.138728 -0.462548,0.274778 -0.71875,0.375 0.301527,-0.0968 0.596455,-0.204138 0.875,-0.34375 0.55709,-0.279224 1.060053,-0.665694 1.5,-1.09375 0.219973,-0.214028 0.409366,-0.441865 0.59375,-0.6875 0.184384,-0.245635 0.355408,-0.507743 0.5,-0.78125 0.14012,-0.265048 0.276135,-0.524729 0.375,-0.8125 0.01041,-0.03078 0.02133,-0.06274 0.03125,-0.09375 0.09046,-0.278085 0.1388,-0.579404 0.1875,-0.875 C 89.95865,84.6507 90,84.334721 90,84 l 0,-2 0,-68 0,-2 C 90,8.676 87.324,6 84,6 L 12,6 z"
       inkscape:connector-curvature="0"
       id="rect3728"
       style="opacity:0.3;fill:url(#linearGradient3188);fill-opacity:1;fill-rule:nonzero;stroke:none" />
  </g>
  <g
     id="layer6"
     style="display:inline"
     transform="translate(-0.40678153,-12.610169)"
     inkscape:export-filename="E:\Dropbox\te_ndryshme\Programming\Git\TopeClient\Tope\graphics\progs_vlc.png"
     inkscape:export-xdpi="255.97804"
     inkscape:export-ydpi="255.97804">
    <path
       d="m 48.28125,27.90625 c -1.032284,0.0708 -2.256283,0.230277 -3.40625,0.6875 -1.149967,0.457223 -2.288733,1.24289 -2.875,2.5 a 0.98442092,0.98442092 0 0 0 -0.03125,0.125 c -1.391622,4.942398 -3.044208,9.81247 -4.40625,14.84375 -0.0026,0.0097 0.0026,0.02151 0,0.03125 -1.45108,4.92182 -2.858839,9.882343 -4.375,14.75 -0.0068,0.02177 -0.02446,0.04073 -0.03125,0.0625 -0.660171,1.801538 -1.183897,3.632969 -1.75,5.40625 -0.502288,-0.0013 -1.02335,-0.02094 -1.6875,-0.03125 -0.89805,-0.01394 -1.984671,0.108901 -2.875,0.875 a 0.98442092,0.98442092 0 0 0 -0.1875,0.25 c -1.210255,2.016388 -1.77608,4.224828 -2.625,6.09375 a 0.98442092,0.98442092 0 0 0 0,0.03125 c -1.942742,4.925459 -3.980893,9.882329 -5.875,14.84375 a 0.98442092,0.98442092 0 0 0 -0.0625,0.375 c 0.04711,1.575051 -0.351426,3.495246 0.25,5.46875 a 0.98442092,0.98442092 0 0 0 0.09375,0.25 c 0.728185,1.161582 2.008821,1.503925 3.03125,1.53125 1.022429,0.02733 1.975285,-0.137008 2.5625,-0.0625 a 0.98442092,0.98442092 0 0 0 0.125,0 c 17.014246,-0.02085 34.043513,0.04171 51.0625,-0.03125 a 0.98442092,0.98442092 0 0 0 0.09375,0 c 1.248477,-0.11015 2.124391,-1.043879 2.4375,-1.96875 0.294566,-0.870099 0.252732,-1.732667 0.1875,-2.46875 -0.0033,-0.03707 0.0036,-0.08874 0,-0.125 4.81e-4,-0.01006 -4.72e-4,-0.02118 0,-0.03125 0.07409,-1.581725 0.0323,-3.28648 -0.8125,-4.90625 -0.01546,-0.03956 -0.01579,-0.08544 -0.03125,-0.125 C 74.712954,80.186756 72.355818,74.029375 69.9375,67.9375 A 0.98442092,0.98442092 0 0 0 69.84375,67.75 c -0.777742,-1.094097 -2.045287,-1.403987 -3.0625,-1.4375 -0.759883,-0.02504 -1.358736,0.0245 -1.9375,0.03125 -1.794364,-6.376011 -3.499734,-12.761407 -5.25,-19.15625 a 0.98442092,0.98442092 0 0 0 0,-0.03125 C 57.987269,41.789098 56.65542,36.415681 55.03125,31 A 0.98442092,0.98442092 0 0 0 54.875,30.65625 c -1.590215,-1.977569 -4.2959,-2.653124 -6.5,-2.75 a 0.98442092,0.98442092 0 0 0 -0.09375,0 z"
       id="path4579"
       style="opacity:0.07999998;fill:#000000;fill-opacity:1;fill-rule:evenodd;stroke:none"
       inkscape:connector-curvature="0" />
    <path
       d="m 48.34375,28.875 c -1.930722,0.132425 -4.54359,0.708222 -5.4375,2.625 -1.403647,4.985104 -3.057319,9.84492 -4.410156,14.846956 -1.458726,4.947057 -2.870472,9.926364 -4.402344,14.840544 -0.732822,1.989282 -1.293106,4.094329 -1.96875,6.125 -1.521063,0.19636 -3.356622,-0.497648 -4.625,0.59375 -1.109512,1.848542 -1.661039,4.034299 -2.559193,6.011611 -1.946758,4.935641 -3.99071,9.856521 -5.878307,14.800889 0.05159,1.724952 -0.288236,3.555139 0.21875,5.21875 1.045491,1.667741 3.264211,0.825865 4.882891,1.03125 17.017462,-0.02085 34.04085,0.04169 51.054609,-0.03125 1.761654,-0.155426 1.886968,-2.151861 1.75,-3.519571 0.08291,-1.615314 0.03528,-3.228412 -0.761251,-4.6816 C 73.808898,80.598066 71.46207,74.435869 69.03125,68.3125 c -1.124587,-1.582025 -3.278808,-0.815671 -4.9375,-1 C 62.224559,60.699636 60.469991,54.046169 58.658429,47.427373 57.0431,42.030661 55.70894,36.666989 54.09375,31.28125 52.793018,29.663678 50.354879,28.963394 48.34375,28.875 z"
       inkscape:connector-curvature="0"
       id="path4573"
       style="opacity:0.1;fill:#000000;fill-opacity:1;fill-rule:evenodd;stroke:none" />
    <path
       d="m 48.34375,29.875 c -2.49135,0 -4.25,1.53125 -4.25,1.53125 A 0.98336528,0.98336528 0 0 0 43.8125,31.875 l -2.15625,7.3125 a 0.98336528,0.98336528 0 0 0 -0.03125,0.03125 0.98336528,0.98336528 0 0 0 -0.15625,0.3125 l -2.4375,8.5 -4,13.5 a 0.98336528,0.98336528 0 0 0 -0.1875,0.375 l -2,6.40625 -3.9375,0 A 0.98336528,0.98336528 0 0 0 28,68.90625 L 20.09375,88.6875 a 0.98336528,0.98336528 0 0 0 -0.0625,0.375 l 0,3.9375 A 0.98336528,0.98336528 0 0 0 21,93.96875 l 54,0 A 0.98336528,0.98336528 0 0 0 75.96875,93 l 0,-3.9375 a 0.98336528,0.98336528 0 0 0 -0.0625,-0.34375 L 68.25,69 a 0.98336528,0.98336528 0 0 0 -0.71875,-0.625 0.98336528,0.98336528 0 0 0 -0.03125,0 0.98336528,0.98336528 0 0 0 -0.0625,0 0.98336528,0.98336528 0 0 0 -0.34375,-0.0625 l -3.78125,0 -0.5625,-2 C 62.506122,65.410902 62.232725,64.376623 61.96875,63.40625 61.9456,63.32312 61.92226,63.24492 61.90625,63.1875 60.699958,58.754839 59.872304,55.741778 58.625,51.21875 a 0.98336528,0.98336528 0 0 0 0,-0.0625 c -0.003,-0.01102 0.003,-0.02021 0,-0.03125 A 0.98336528,0.98336528 0 0 0 58.59375,50.75 l -3.0625,-10.71875 c -0.0024,-0.0086 0.0024,-0.02261 0,-0.03125 -0.662335,-2.382449 -2.21875,-8 -2.21875,-8 a 0.98336528,0.98336528 0 0 0 -0.375,-0.5625 c 0,0 -2.072805,-1.5625 -4.59375,-1.5625 z"
       id="path4569"
       style="opacity:0.15;fill:#000000;fill-opacity:1;fill-rule:evenodd;stroke:none"
       inkscape:connector-curvature="0" />
    <path
       d="m 48.34375,30.84375 c -2.077148,0 -3.59375,1.3125 -3.59375,1.3125 L 42.46875,39.875 c -0.007,-0.0091 -0.0625,-0.0625 -0.0625,-0.0625 l -2.4375,8.5 -4.125,13.90625 c -0.0025,-0.002 -0.0625,-0.0312 -0.0625,-0.0312 l -2.21875,7.09375 -4.65625,0 L 21,89.0625 21,93 l 54,0 0,-3.9375 -7.65625,-19.71875 -0.21875,0 c -0.0051,-0.01 -0.03125,-0.0625 -0.03125,-0.0625 l -4.53125,0 -0.75,-2.71875 c -0.244998,-0.90574 -0.518595,-1.94073 -0.78125,-2.90625 -0.01949,-0.07 -0.04291,-0.14848 -0.0625,-0.21875 -1.247191,-4.58295 -2.054242,-7.59116 -3.375,-12.375 0.0031,-0.0016 0.0625,-0.03125 0.0625,-0.03125 l -3.0625,-10.75 C 53.934514,37.910315 52.375,32.25 52.375,32.25 c 0,0 -1.95409,-1.40625 -4.03125,-1.40625 z"
       inkscape:connector-curvature="0"
       id="path4462"
       style="opacity:0.3;fill:#000000;fill-opacity:1;fill-rule:evenodd;stroke:none" />
    <g
       transform="matrix(1.1825572,0,0,1.1825572,-11.452786,8.166766)"
       clip-path="url(#clipPath4833)"
       id="g4450"
       style="opacity:0.6;display:inline;filter:url(#filter4839)">
      <path
         d="M 65.154839,58.876894 84.347737,26.046936 79.549513,22.258864 45.961941,50.038059 65.154839,58.876894 z"
         inkscape:connector-curvature="0"
         id="path4452"
         style="opacity:0.5;fill:url(#linearGradient4456);fill-opacity:1;stroke:none" />
      <path
         d="M 38.195957,58.876894 23.106368,33.065755 26.878765,30.087546 53.285546,51.927741 38.195957,58.876894 z"
         inkscape:connector-curvature="0"
         id="path4454"
         style="opacity:0.5;fill:url(#linearGradient4458);fill-opacity:1;stroke:none" />
    </g>
    <g
       transform="matrix(1.316934,0,0,1.316934,-114.64135,-33.108732)"
       id="g4408">
      <path
         d="m 109,77 -6,15 0,3 41,0 0,-3 -5.80578,-14.953523 z"
         inkscape:connector-curvature="0"
         id="path3244"
         style="fill:url(#linearGradient4426);fill-opacity:1;fill-rule:evenodd;stroke:none" />
      <g
         transform="translate(100,48)"
         id="layer6-2"
         style="display:inline">
        <path
           d="m 23.117554,40.820635 c 0,0 -9.649177,-0.656979 -12.086984,-5.410027 C 8.5792666,30.631246 9,29 9,29 l 29,0 c 0,0 2.538527,4.682019 -2.677526,8.518128 -2.940539,2.162598 -12.466443,3.302507 -12.20492,3.302507 z"
           inkscape:connector-curvature="0"
           id="path10181"
           style="opacity:0.57320874;fill:#832e0a;fill-opacity:1;fill-rule:evenodd;stroke:#000000;stroke-width:0;stroke-linecap:butt;stroke-linejoin:miter;stroke-miterlimit:4;stroke-opacity:1;stroke-dasharray:none;display:inline;filter:url(#filter11385)" />
      </g>
      <path
         d="m 109,77 -6,15 41,0 L 138.1875,77.03125 109,77 z m 0.6875,1 L 137.5,78.03125 142.53125,91 104.5,91 109.6875,78 z"
         inkscape:connector-curvature="0"
         id="path4228"
         style="fill:url(#linearGradient4428);fill-opacity:1;fill-rule:evenodd;stroke:none" />
      <path
         d="m 110.99459,82.676573 c 0,0 1.97695,5.397914 12.33134,5.166495 8.53949,-0.195387 13.04826,-2.870274 12.90488,-4.305412 -0.14338,-1.435137 -9.41288,-34.670883 -9.41288,-34.670883 0,0 -1.48457,-1.064042 -3.06184,-1.064042 -1.57726,0 -2.72435,1.004596 -2.72435,1.004596 l -10.03715,33.869246 z"
         inkscape:connector-curvature="0"
         id="path4346"
         style="fill:url(#linearGradient4430);fill-opacity:1;fill-rule:evenodd;stroke:#ea7b11;stroke-width:0;stroke-linecap:butt;stroke-linejoin:miter;stroke-miterlimit:4;stroke-opacity:1;stroke-dasharray:none" />
      <path
         d="m 64.649761,65.94796 a 16.414978,5.5558391 0 1 1 -32.829956,0 16.414978,5.5558391 0 1 1 32.829956,0 z"
         transform="matrix(0.78245284,0,0,0.91663154,85.824582,23.432476)"
         id="path4348"
         style="fill:#f29d1a;fill-opacity:1;stroke:none;filter:url(#filter3950)"
         inkscape:connector-curvature="0" />
      <path
         d="m 121.24892,49.643787 -9.25533,32.59627 c 0,0 -2.1615,0.415114 -0.0356,1.759134 2.13662,1.350791 3.96753,2.761294 5.42913,2.492807 1.17871,-0.216522 5.26808,-35.67249 5.26808,-35.67249 l -1.4063,-1.175721 z"
         inkscape:connector-curvature="0"
         id="path4350"
         style="opacity:0.8;fill:url(#linearGradient4432);fill-opacity:1;fill-rule:evenodd;stroke:#000000;stroke-width:0;stroke-linecap:butt;stroke-linejoin:miter;stroke-miterlimit:4;stroke-opacity:1;stroke-dasharray:none;display:inline" />
      <path
         d="m 124.63069,49.8389 3.63158,33.691502 c 0,0 -0.55806,1.839668 1.91628,2.287782 2.48679,0.450373 4.44115,-1.336932 5.69552,-2.134354 1.01159,-0.643085 -9.20283,-33.777197 -9.20283,-33.777197 z"
         inkscape:connector-curvature="0"
         id="path4352"
         style="opacity:0.8;fill:url(#linearGradient4434);fill-opacity:1;fill-rule:evenodd;stroke:#000000;stroke-width:0;stroke-linecap:butt;stroke-linejoin:miter;stroke-miterlimit:4;stroke-opacity:1;stroke-dasharray:none;display:inline" />
      <g
         transform="matrix(0.99860894,0,0,0.99948788,100.52733,46.756313)"
         id="g4354"
         style="display:inline">
        <path
           d="m 18.759169,7.8637439 c 0,0 1.161301,1.6123342 4.501971,1.6620774 2.838531,0.042918 4.747092,-1.315427 4.747092,-1.315427 l 2.330742,8.1829807 c 0,0 -4.204096,2.120424 -7.22142,2.027643 -4.053129,-0.124632 -6.748602,-2.297396 -6.748602,-2.297396 l 2.390217,-8.2598781 z"
           inkscape:connector-curvature="0"
           id="path4356"
           style="fill:url(#linearGradient4436);fill-opacity:1;fill-rule:evenodd;stroke:#ffffff;stroke-width:0;stroke-linecap:butt;stroke-linejoin:miter;stroke-miterlimit:4;stroke-opacity:1;stroke-dasharray:none" />
        <path
           d="m 13.724904,24.867345 c 0,0 4.221471,2.809079 9.823411,2.906586 4.022366,0.07185 9.138823,-2.552718 9.138823,-2.552718 l 2.060987,7.483957 c 0,0 -3.675488,4.003161 -11.427509,3.971174 -7.080385,-0.02977 -11.833632,-4.689109 -11.833632,-4.689109 l 2.23792,-7.11989 z"
           inkscape:connector-curvature="0"
           id="path4358"
           style="fill:url(#linearGradient4438);fill-opacity:1;fill-rule:evenodd;stroke:#ffffff;stroke-width:0;stroke-linecap:butt;stroke-linejoin:miter;stroke-miterlimit:4;stroke-opacity:1;stroke-dasharray:none" />
      </g>
      <path
         d="m 126.02697,49.345001 c 0,0.490399 -0.91923,0.887945 -2.05315,0.887945 -1.13393,0 -2.05315,-0.397546 -2.05315,-0.887945 0,-0.4904 0.91922,-0.887945 2.05315,-0.887945 1.13392,0 2.05315,0.397545 2.05315,0.887945 l 0,0 z"
         inkscape:connector-curvature="0"
         id="path4360"
         style="opacity:0.91135733;fill:#643108;fill-opacity:1;fill-rule:nonzero;stroke:#805400;stroke-width:0;stroke-miterlimit:4;stroke-opacity:1;stroke-dasharray:none" />
      <path
         d="m 122.47923,50.211584 -8.89196,34.808064 2.56878,1.186639 6.32318,-35.994703 z"
         inkscape:connector-curvature="0"
         id="path4362"
         style="opacity:0.4;fill:url(#linearGradient4440);fill-opacity:1;stroke:url(#linearGradient4442);stroke-width:0.75933951px;stroke-linecap:butt;stroke-linejoin:miter;stroke-opacity:1" />
      <path
         d="m 124.45524,50.607133 2.07477,36.489138 -1.87718,0.09888 -0.19759,-36.588024 z"
         inkscape:connector-curvature="0"
         id="path4364"
         style="opacity:0.2;fill:#ffffff;stroke:none" />
      <path
         d="m 121.49123,59.605806 -7.01478,25.611615 5.73039,1.977733 1.28439,-27.589348 z"
         inkscape:connector-curvature="0"
         id="path4370"
         style="opacity:0.2;fill:url(#linearGradient4444);fill-opacity:1;stroke:url(#linearGradient4446);stroke-width:0.75933951px;stroke-linecap:butt;stroke-linejoin:miter;stroke-opacity:1" />
      <path
         d="M 111.1875,82.0625 111,82.6875 c 0,0 1.95811,5.387669 12.3125,5.15625 8.53949,-0.195387 13.04963,-2.877362 12.90625,-4.3125 -0.005,-0.04726 -0.10114,-0.386077 -0.125,-0.5 -0.75831,1.480393 -5.15976,3.638117 -12.78125,3.8125 -8.73652,0.19526 -11.47189,-3.585126 -12.125,-4.78125 z"
         inkscape:connector-curvature="0"
         id="path4390"
         style="fill:url(#linearGradient4448);fill-opacity:1;fill-rule:evenodd;stroke:#ea7b11;stroke-width:0;stroke-linecap:butt;stroke-linejoin:miter;stroke-miterlimit:4;stroke-opacity:1;stroke-dasharray:none" />
    </g>
  </g>
</svg>
