<?xml version="1.0" encoding="UTF-8" standalone="no"?>
<!-- Created with Inkscape (http://www.inkscape.org/) -->

<svg
   xmlns:dc="http://purl.org/dc/elements/1.1/"
   xmlns:cc="http://creativecommons.org/ns#"
   xmlns:rdf="http://www.w3.org/1999/02/22-rdf-syntax-ns#"
   xmlns:svg="http://www.w3.org/2000/svg"
   xmlns="http://www.w3.org/2000/svg"
   xmlns:xlink="http://www.w3.org/1999/xlink"
   xmlns:sodipodi="http://sodipodi.sourceforge.net/DTD/sodipodi-0.dtd"
   xmlns:inkscape="http://www.inkscape.org/namespaces/inkscape"
   version="1.0"
   width="96"
   height="96"
   id="svg2"
   style="display:inline"
   inkscape:version="0.48.4 r9939"
   sodipodi:docname="tope_icon.svg"
   inkscape:export-filename="C:\Users\Aldi\Desktop\utils_bell.png"
   inkscape:export-xdpi="256"
   inkscape:export-ydpi="256">
  <sodipodi:namedview
     pagecolor="#ffffff"
     bordercolor="#666666"
     borderopacity="1"
     objecttolerance="10"
     gridtolerance="10"
     guidetolerance="10"
     inkscape:pageopacity="0"
     inkscape:pageshadow="2"
     inkscape:window-width="985"
     inkscape:window-height="1025"
     id="namedview48"
     showgrid="false"
     inkscape:zoom="3.4766083"
     inkscape:cx="80.645183"
     inkscape:cy="73.365398"
     inkscape:window-x="46"
     inkscape:window-y="20"
     inkscape:window-maximized="0"
     inkscape:current-layer="svg2" />
  <defs
     id="defs4">
    <linearGradient
       x1="7.1904788"
       y1="6.9551144"
       x2="7.1904788"
       y2="18.319494"
       id="linearGradient4528"
       gradientUnits="userSpaceOnUse"
       gradientTransform="scale(1.1467263,0.8720476)">
      <stop
         id="stop4530"
         style="stop-color:#323232;stop-opacity:1"
         offset="0" />
      <stop
         id="stop4532"
         style="stop-color:#787878;stop-opacity:1"
         offset="1" />
    </linearGradient>
    <linearGradient
       x1="14"
       y1="1"
       x2="14"
       y2="21.024984"
       id="linearGradient3714"
       xlink:href="#linearGradient4528"
       gradientUnits="userSpaceOnUse"
       gradientTransform="matrix(3.1351351,0,0,3.1351351,9.3243243,-60.135135)" />
    <clipPath
       id="clipPath3266">
      <path
         d="M 0,0 0,96 96,96 96,0 0,0 z m 12,6 72,0 c 3.324,0 6,2.676 6,6 l 0,72 c 0,3.324 -2.676,6 -6,6 L 12,90 C 8.676,90 6,87.324 6,84 L 6,12 C 6,8.676 8.676,6 12,6 z"
         inkscape:connector-curvature="0"
         id="path3268"
         style="opacity:0.3;color:#000000;fill:#ff0000;fill-opacity:1;fill-rule:nonzero;stroke:none;stroke-width:4;marker:none;visibility:visible;display:inline;overflow:visible;enable-background:accumulate" />
    </clipPath>
    <linearGradient
       x1="32.251034"
       y1="6.1317081"
       x2="32.251034"
       y2="90.238609"
       id="linearGradient3101"
       xlink:href="#ButtonShadow-0"
       gradientUnits="userSpaceOnUse"
       gradientTransform="matrix(1.0238095,0,0,1.0119048,-1.1428571,-98.071429)" />
    <linearGradient
       x1="45.447727"
       y1="92.539597"
       x2="45.447727"
       y2="7.0165396"
       id="ButtonShadow-0"
       gradientUnits="userSpaceOnUse"
       gradientTransform="matrix(1.0058652,0,0,0.994169,100,0)">
      <stop
         id="stop3750-8"
         style="stop-color:#000000;stop-opacity:1"
         offset="0" />
      <stop
         id="stop3752-5"
         style="stop-color:#000000;stop-opacity:0.58823532"
         offset="1" />
    </linearGradient>
    <linearGradient
       x1="32.251034"
       y1="6.1317081"
       x2="32.251034"
       y2="90.238609"
       id="linearGradient3780"
       xlink:href="#ButtonShadow-0"
       gradientUnits="userSpaceOnUse"
       gradientTransform="matrix(1.0238095,0,0,1.0119048,-1.1428571,-98.071429)" />
    <linearGradient
       x1="32.251034"
       y1="6.1317081"
       x2="32.251034"
       y2="90.238609"
       id="linearGradient3772"
       xlink:href="#ButtonShadow-0"
       gradientUnits="userSpaceOnUse"
       gradientTransform="matrix(1.0238095,0,0,1.0119048,-1.1428571,-98.071429)" />
    <linearGradient
       x1="32.251034"
       y1="6.1317081"
       x2="32.251034"
       y2="90.238609"
       id="linearGradient3725-8"
       xlink:href="#ButtonShadow-0"
       gradientUnits="userSpaceOnUse"
       gradientTransform="matrix(1.0238095,0,0,1.0119048,-1.1428571,-98.071429)" />
    <linearGradient
       x1="48"
       y1="90"
       x2="48"
       y2="5.9877172"
       id="linearGradient3052"
       xlink:href="#ButtonColor-6"
       gradientUnits="userSpaceOnUse" />
    <linearGradient
       x1="10.31979"
       y1="21"
       x2="10.31979"
       y2="0.99929649"
       id="ButtonColor-6"
       gradientUnits="userSpaceOnUse">
      <stop
         id="stop3189-4"
         style="stop-color:#c8c8c8;stop-opacity:1"
         offset="0" />
      <stop
         id="stop3191-0"
         style="stop-color:#e6e6e6;stop-opacity:1"
         offset="1" />
    </linearGradient>
    <linearGradient
       x1="36.357143"
       y1="6"
       x2="36.357143"
       y2="63.893143"
       id="linearGradient3188"
       xlink:href="#linearGradient3737-1"
       gradientUnits="userSpaceOnUse" />
    <linearGradient
       id="linearGradient3737-1">
      <stop
         id="stop3739"
         style="stop-color:#ffffff;stop-opacity:1"
         offset="0" />
      <stop
         id="stop3741"
         style="stop-color:#ffffff;stop-opacity:0"
         offset="1" />
    </linearGradient>
    <radialGradient
       cx="48"
       cy="90.171875"
       r="42"
       fx="48"
       fy="90.171875"
       id="radialGradient3619"
       xlink:href="#linearGradient3737-1"
       gradientUnits="userSpaceOnUse"
       gradientTransform="matrix(1.1573129,0,0,0.99590774,-7.551021,0.1971319)" />
    <linearGradient
       x1="32.251034"
       y1="6.1317081"
       x2="32.251034"
       y2="90.238609"
       id="linearGradient4256"
       xlink:href="#ButtonShadow-0"
       gradientUnits="userSpaceOnUse"
       gradientTransform="translate(0,-97)" />
    <filter
       color-interpolation-filters="sRGB"
       id="filter3998">
      <feGaussianBlur
         id="feGaussianBlur4000"
         stdDeviation="0.78264169" />
    </filter>
    <linearGradient
       inkscape:collect="always"
       xlink:href="#linearGradient4528"
       id="linearGradient3031"
       gradientUnits="userSpaceOnUse"
       gradientTransform="matrix(3.1351351,0,0,3.1351351,13.063601,147.04064)"
       x1="14"
       y1="1"
       x2="14"
       y2="21.024984" />
    <radialGradient
       inkscape:collect="always"
       xlink:href="#linearGradient3905"
       id="radialGradient4082"
       gradientUnits="userSpaceOnUse"
       gradientTransform="matrix(1.1428569,1.5630328e-7,-1.9842221e-7,1.4508217,-24.427633,94.2517)"
       cx="48"
       cy="45.167473"
       fx="48"
       fy="45.167473"
       r="7" />
    <linearGradient
       id="linearGradient3905">
      <stop
         id="stop3907"
         style="stop-color:#47bbee;stop-opacity:1"
         offset="0" />
      <stop
         id="stop3909"
         style="stop-color:#175f7f;stop-opacity:1"
         offset="1" />
    </linearGradient>
    <radialGradient
       inkscape:collect="always"
       xlink:href="#linearGradient3847"
       id="radialGradient4084"
       gradientUnits="userSpaceOnUse"
       gradientTransform="matrix(1,0,0,0.83333345,-17.570511,120.83986)"
       cx="48"
       cy="47.930149"
       fx="48"
       fy="47.930149"
       r="6" />
    <linearGradient
       id="linearGradient3847">
      <stop
         id="stop3849"
         style="stop-color:#ffffff;stop-opacity:1"
         offset="0" />
      <stop
         id="stop3851"
         style="stop-color:#ffffff;stop-opacity:0"
         offset="1" />
    </linearGradient>
    <linearGradient
       inkscape:collect="always"
       xlink:href="#linearGradient3847"
       id="linearGradient4086"
       gradientUnits="userSpaceOnUse"
       gradientTransform="matrix(0.71428569,0,0,0.5,-3.8562241,132.78165)"
       x1="49.400002"
       y1="34"
       x2="49.400002"
       y2="51.5" />
    <linearGradient
       id="linearGradient3091">
      <stop
         id="stop3093"
         style="stop-color:#ffffff;stop-opacity:1"
         offset="0" />
      <stop
         id="stop3095"
         style="stop-color:#ffffff;stop-opacity:0"
         offset="1" />
    </linearGradient>
    <linearGradient
       inkscape:collect="always"
       xlink:href="#linearGradient3701"
       id="linearGradient3887"
       gradientUnits="userSpaceOnUse"
       x1="56"
       y1="64"
       x2="56"
       y2="16"
       gradientTransform="translate(-0.25231461,7.6039563)" />
    <linearGradient
       id="linearGradient3701">
      <stop
         id="stop3703"
         style="stop-color:#1c4a5b;stop-opacity:1"
         offset="0" />
      <stop
         id="stop3705"
         style="stop-color:#228cb8;stop-opacity:1"
         offset="1" />
    </linearGradient>
    <linearGradient
       inkscape:collect="always"
       xlink:href="#linearGradient3916"
       id="linearGradient3890"
       gradientUnits="userSpaceOnUse"
       x1="56"
       y1="48"
       x2="56"
       y2="8"
       gradientTransform="translate(0,6.5084746)" />
    <linearGradient
       id="linearGradient3916">
      <stop
         id="stop3918"
         style="stop-color:#ffffff;stop-opacity:1"
         offset="0" />
      <stop
         id="stop3920"
         style="stop-color:#ffffff;stop-opacity:0"
         offset="1" />
    </linearGradient>
    <linearGradient
       y2="8"
       x2="56"
       y1="48"
       x1="56"
       gradientTransform="translate(-0.25231461,7.6039563)"
       gradientUnits="userSpaceOnUse"
       id="linearGradient3118"
       xlink:href="#linearGradient3916"
       inkscape:collect="always" />
  </defs>
  <metadata
     id="metadata7">
    <rdf:RDF>
      <cc:Work
         rdf:about="">
        <dc:format>image/svg+xml</dc:format>
        <dc:type
           rdf:resource="http://purl.org/dc/dcmitype/StillImage" />
        <dc:title></dc:title>
      </cc:Work>
    </rdf:RDF>
  </metadata>
  <g
     id="layer2"
     inkscape:export-filename="E:\Dropbox\te_ndryshme\Programming\Git\TopeClient\Tope\graphics\tope_icon.png"
     inkscape:export-xdpi="255.97804"
     inkscape:export-ydpi="255.97804">
    <g
       clip-path="url(#clipPath3266)"
       id="g3202"
       style="display:inline">
      <path
         d="m 12,-95.03125 c -5.5110903,0 -10.03125,4.52016 -10.03125,10.03125 l 0,71 c 0,5.5110902 4.5201598,10.03125 10.03125,10.03125 l 72,0 c 5.51109,0 10.03125,-4.5201597 10.03125,-10.03125 l 0,-71 c 0,-5.51109 -4.52016,-10.03125 -10.03125,-10.03125 l -72,0 z"
         transform="scale(1,-1)"
         id="path3786"
         style="opacity:0.07999998;fill:url(#linearGradient3101);fill-opacity:1;fill-rule:nonzero;stroke:none;display:inline" />
      <path
         d="m 12,-94.03125 c -4.971633,0 -9.03125,4.059617 -9.03125,9.03125 l 0,71 c 0,4.9716329 4.0596171,9.03125 9.03125,9.03125 l 72,0 c 4.971633,0 9.03125,-4.059617 9.03125,-9.03125 l 0,-71 c 0,-4.971633 -4.059617,-9.03125 -9.03125,-9.03125 l -72,0 z"
         transform="scale(1,-1)"
         id="path3778"
         style="opacity:0.1;fill:url(#linearGradient3780);fill-opacity:1;fill-rule:nonzero;stroke:none;display:inline" />
      <path
         d="m 12,-93 c -4.4091333,0 -8,3.590867 -8,8 l 0,71 c 0,4.4091333 3.5908667,8 8,8 l 72,0 c 4.409133,0 8,-3.5908667 8,-8 l 0,-71 c 0,-4.409133 -3.590867,-8 -8,-8 l -72,0 z"
         transform="scale(1,-1)"
         id="path3770"
         style="opacity:0.2;fill:url(#linearGradient3772);fill-opacity:1;fill-rule:nonzero;stroke:none;display:inline" />
      <rect
         width="86"
         height="85"
         rx="7"
         ry="7"
         x="5"
         y="-92"
         transform="scale(1,-1)"
         id="rect3723"
         style="opacity:0.3;fill:url(#linearGradient3725-8);fill-opacity:1;fill-rule:nonzero;stroke:none;display:inline" />
      <rect
         width="84"
         height="84"
         rx="6"
         ry="6"
         x="6"
         y="-91"
         transform="scale(1,-1)"
         id="rect3716"
         style="opacity:0.45;fill:url(#linearGradient4256);fill-opacity:1;fill-rule:nonzero;stroke:none;display:inline" />
    </g>
    <rect
       width="84"
       height="84"
       rx="6"
       ry="6"
       x="6"
       y="6"
       id="rect2419"
       style="opacity:0.75;fill:url(#linearGradient3052);fill-opacity:1;fill-rule:nonzero;stroke:none;display:inline" />
    <path
       d="M 12,6 C 8.676,6 6,8.676 6,12 l 0,2 0,68 0,2 c 0,0.334721 0.04135,0.6507 0.09375,0.96875 0.0487,0.295596 0.09704,0.596915 0.1875,0.875 0.00988,0.03038 0.020892,0.0636 0.03125,0.09375 0.098865,0.287771 0.2348802,0.547452 0.375,0.8125 0.1445918,0.273507 0.3156161,0.535615 0.5,0.78125 0.1843839,0.245635 0.3737765,0.473472 0.59375,0.6875 0.439947,0.428056 0.94291,0.814526 1.5,1.09375 0.278545,0.139612 0.5734731,0.246947 0.875,0.34375 -0.2562018,-0.100222 -0.4867109,-0.236272 -0.71875,-0.375 -0.00741,-0.0044 -0.023866,0.0045 -0.03125,0 -0.031933,-0.0193 -0.062293,-0.04251 -0.09375,-0.0625 -0.120395,-0.0767 -0.2310226,-0.163513 -0.34375,-0.25 -0.1061728,-0.0808 -0.2132809,-0.161112 -0.3125,-0.25 C 8.4783201,88.557317 8.3087904,88.373362 8.15625,88.1875 8.0486711,88.057245 7.9378561,87.922215 7.84375,87.78125 7.818661,87.74287 7.805304,87.69538 7.78125,87.65625 7.716487,87.553218 7.6510225,87.451733 7.59375,87.34375 7.4927417,87.149044 7.3880752,86.928049 7.3125,86.71875 7.30454,86.69694 7.288911,86.6782 7.28125,86.65625 7.2494249,86.5643 7.2454455,86.469419 7.21875,86.375 7.188418,86.268382 7.148361,86.171969 7.125,86.0625 7.052121,85.720988 7,85.364295 7,85 L 7,83 7,15 7,13 C 7,10.218152 9.2181517,8 12,8 l 2,0 68,0 2,0 c 2.781848,0 5,2.218152 5,5 l 0,2 0,68 0,2 c 0,0.364295 -0.05212,0.720988 -0.125,1.0625 -0.04415,0.206893 -0.08838,0.397658 -0.15625,0.59375 -0.0077,0.02195 -0.0233,0.04069 -0.03125,0.0625 -0.06274,0.173739 -0.138383,0.367449 -0.21875,0.53125 -0.04158,0.0828 -0.07904,0.169954 -0.125,0.25 -0.0546,0.09721 -0.126774,0.18835 -0.1875,0.28125 -0.09411,0.140965 -0.204921,0.275995 -0.3125,0.40625 -0.143174,0.17445 -0.303141,0.346998 -0.46875,0.5 -0.01117,0.0102 -0.01998,0.02115 -0.03125,0.03125 -0.138386,0.125556 -0.285091,0.234436 -0.4375,0.34375 -0.102571,0.07315 -0.204318,0.153364 -0.3125,0.21875 -0.0074,0.0045 -0.02384,-0.0044 -0.03125,0 -0.232039,0.138728 -0.462548,0.274778 -0.71875,0.375 0.301527,-0.0968 0.596455,-0.204138 0.875,-0.34375 0.55709,-0.279224 1.060053,-0.665694 1.5,-1.09375 0.219973,-0.214028 0.409366,-0.441865 0.59375,-0.6875 0.184384,-0.245635 0.355408,-0.507743 0.5,-0.78125 0.14012,-0.265048 0.276135,-0.524729 0.375,-0.8125 0.01041,-0.03078 0.02133,-0.06274 0.03125,-0.09375 0.09046,-0.278085 0.1388,-0.579404 0.1875,-0.875 C 89.95865,84.6507 90,84.334721 90,84 l 0,-2 0,-68 0,-2 C 90,8.676 87.324,6 84,6 L 12,6 z"
       inkscape:connector-curvature="0"
       id="rect3728"
       style="opacity:0.5;fill:url(#linearGradient3188);fill-opacity:1;fill-rule:nonzero;stroke:none;display:inline" />
    <path
       d="M 12,90 C 8.676,90 6,87.324 6,84 L 6,82 6,14 6,12 c 0,-0.334721 0.04135,-0.6507 0.09375,-0.96875 0.0487,-0.295596 0.09704,-0.596915 0.1875,-0.875 C 6.29113,10.12587 6.302142,10.09265 6.3125,10.0625 6.411365,9.774729 6.5473802,9.515048 6.6875,9.25 6.8320918,8.976493 7.0031161,8.714385 7.1875,8.46875 7.3718839,8.223115 7.5612765,7.995278 7.78125,7.78125 8.221197,7.353194 8.72416,6.966724 9.28125,6.6875 9.559795,6.547888 9.8547231,6.440553 10.15625,6.34375 9.9000482,6.443972 9.6695391,6.580022 9.4375,6.71875 c -0.00741,0.0044 -0.023866,-0.0045 -0.03125,0 -0.031933,0.0193 -0.062293,0.04251 -0.09375,0.0625 -0.120395,0.0767 -0.2310226,0.163513 -0.34375,0.25 -0.1061728,0.0808 -0.2132809,0.161112 -0.3125,0.25 C 8.4783201,7.442683 8.3087904,7.626638 8.15625,7.8125 8.0486711,7.942755 7.9378561,8.077785 7.84375,8.21875 7.818661,8.25713 7.805304,8.30462 7.78125,8.34375 7.716487,8.446782 7.6510225,8.548267 7.59375,8.65625 7.4927417,8.850956 7.3880752,9.071951 7.3125,9.28125 7.30454,9.30306 7.288911,9.3218 7.28125,9.34375 7.2494249,9.4357 7.2454455,9.530581 7.21875,9.625 7.188418,9.731618 7.148361,9.828031 7.125,9.9375 7.052121,10.279012 7,10.635705 7,11 l 0,2 0,68 0,2 c 0,2.781848 2.2181517,5 5,5 l 2,0 68,0 2,0 c 2.781848,0 5,-2.218152 5,-5 l 0,-2 0,-68 0,-2 C 89,10.635705 88.94788,10.279012 88.875,9.9375 88.83085,9.730607 88.78662,9.539842 88.71875,9.34375 88.71105,9.3218 88.69545,9.30306 88.6875,9.28125 88.62476,9.107511 88.549117,8.913801 88.46875,8.75 88.42717,8.6672 88.38971,8.580046 88.34375,8.5 88.28915,8.40279 88.216976,8.31165 88.15625,8.21875 88.06214,8.077785 87.951329,7.942755 87.84375,7.8125 87.700576,7.63805 87.540609,7.465502 87.375,7.3125 87.36383,7.3023 87.35502,7.29135 87.34375,7.28125 87.205364,7.155694 87.058659,7.046814 86.90625,6.9375 86.803679,6.86435 86.701932,6.784136 86.59375,6.71875 c -0.0074,-0.0045 -0.02384,0.0044 -0.03125,0 -0.232039,-0.138728 -0.462548,-0.274778 -0.71875,-0.375 0.301527,0.0968 0.596455,0.204138 0.875,0.34375 0.55709,0.279224 1.060053,0.665694 1.5,1.09375 0.219973,0.214028 0.409366,0.441865 0.59375,0.6875 0.184384,0.245635 0.355408,0.507743 0.5,0.78125 0.14012,0.265048 0.276135,0.524729 0.375,0.8125 0.01041,0.03078 0.02133,0.06274 0.03125,0.09375 0.09046,0.278085 0.1388,0.579404 0.1875,0.875 C 89.95865,11.3493 90,11.665279 90,12 l 0,2 0,68 0,2 c 0,3.324 -2.676,6 -6,6 l -72,0 z"
       inkscape:connector-curvature="0"
       id="path3615"
       style="opacity:0.2;fill:url(#radialGradient3619);fill-opacity:1;fill-rule:nonzero;stroke:none;display:inline" />
  </g>
  <rect
     style="opacity:0.3;color:#000000;fill:#ff0000;fill-opacity:1;fill-rule:nonzero;stroke:none;stroke-width:4;marker:none;visibility:visible;display:inline;overflow:visible;enable-background:accumulate"
     id="rect3708"
     y="138.92851"
     x="-100"
     height="96"
     width="96" />
  <path
     style="opacity:0.4;color:#000000;fill:url(#linearGradient3118);fill-opacity:1;fill-rule:nonzero;stroke:none;stroke-width:8;marker:none;visibility:visible;display:inline;overflow:visible;enable-background:accumulate"
     id="path3911"
     inkscape:connector-curvature="0"
     d="m 11.747685,13.603956 c -3.3239996,0 -5.9999996,2.676 -5.9999996,6 l 0,24.125 c 11.8231226,5.258282 26.3216746,8.375 41.9999996,8.375 15.678326,0 30.176876,-3.116718 41.999996,-8.375 l 0,-24.125 c 0,-3.324 -2.676,-6 -6,-6 l -71.999996,0 z"
     inkscape:export-filename="E:\Dropbox\te_ndryshme\Programming\Git\TopeClient\Tope\graphics\tope_icon.png"
     inkscape:export-xdpi="255.97804"
     inkscape:export-ydpi="255.97804" />
  <path
     style="font-size:medium;font-style:normal;font-variant:normal;font-weight:normal;font-stretch:normal;text-indent:0;text-align:start;text-decoration:none;line-height:normal;letter-spacing:normal;word-spacing:normal;text-transform:none;direction:ltr;block-progression:tb;writing-mode:lr-tb;text-anchor:start;opacity:0.6;color:#000000;fill:url(#linearGradient3887);fill-opacity:1;stroke:none;stroke-width:3.5;marker:none;visibility:visible;display:inline;overflow:visible;enable-background:accumulate;font-family:Abandoned Bitplane;-inkscape-font-specification:Abandoned Bitplane"
     id="path3665"
     inkscape:connector-curvature="0"
     d="m 26.560185,23.291456 a 4.0004001,4.0004001 0 0 0 -2.875,1.25 c -13.244326,13.244326 -13.244326,34.880674 0,48.125 a 4.0216698,4.0216698 0 1 0 5.6875,-5.6875 c -10.187134,-10.187134 -10.187134,-26.562867 0,-36.75 a 4.0004001,4.0004001 0 0 0 0.5625,-5.125 4.0004001,4.0004001 0 0 0 -3.375,-1.8125 z m 42.374996,0 a 4.0004001,4.0004001 0 0 0 -3.375,1.8125 4.0004001,4.0004001 0 0 0 0.5625,5.125 c 10.18714,10.187133 10.18714,26.562866 0,36.75 a 4.0216698,4.0216698 0 1 0 5.6875,5.6875 c 13.24433,-13.244326 13.24433,-34.880674 0,-48.125 a 4.0004001,4.0004001 0 0 0 -2.875,-1.25 z m -32.906246,10.0625 a 4.0004001,4.0004001 0 0 0 -2.46875,1.21875 c -7.776983,7.776984 -7.776983,20.504267 0,28.28125 a 4.0004001,4.0004001 0 1 0 5.65625,-5.65625 c -4.719794,-4.719793 -4.719794,-12.248957 0,-16.96875 a 4.0004001,4.0004001 0 0 0 0.09375,-5.65625 4.0004001,4.0004001 0 0 0 -3.28125,-1.21875 z m 22.625,0 a 4.0004001,4.0004001 0 0 0 -2.46875,1.21875 4.0004001,4.0004001 0 0 0 0.09375,5.65625 c 4.719796,4.719793 4.719796,12.248957 0,16.96875 a 4.0004001,4.0004001 0 1 0 5.656246,5.65625 c 7.77699,-7.776983 7.77699,-20.504266 0,-28.28125 a 4.0004001,4.0004001 0 0 0 -3.281246,-1.21875 z"
     inkscape:export-filename="E:\Dropbox\te_ndryshme\Programming\Git\TopeClient\Tope\graphics\tope_icon.png"
     inkscape:export-xdpi="255.97804"
     inkscape:export-ydpi="255.97804" />
  <path
     style="font-size:medium;font-style:normal;font-variant:normal;font-weight:normal;font-stretch:normal;text-indent:0;text-align:start;text-decoration:none;line-height:normal;letter-spacing:normal;word-spacing:normal;text-transform:none;direction:ltr;block-progression:tb;writing-mode:lr-tb;text-anchor:start;opacity:0.05;color:#000000;fill:#000000;fill-opacity:1;stroke:none;stroke-width:3.5;marker:none;visibility:visible;display:inline;overflow:visible;enable-background:accumulate;font-family:Abandoned Bitplane;-inkscape-font-specification:Abandoned Bitplane"
     id="path3767"
     inkscape:connector-curvature="0"
     d="m 26.497685,23.291456 c -0.880918,0.04443 -1.617056,0.379638 -2.28125,0.84375 -0.11728,0.08195 -0.231448,0.159167 -0.34375,0.25 -0.04487,0.03817 -0.08058,0.08631 -0.125,0.125 -0.292559,0.254843 -0.569704,0.505944 -0.84375,0.78125 -0.151766,0.1661 -0.291878,0.32594 -0.4375,0.5 -0.6553,0.78327 -1.272979,1.641077 -1.90625,2.34375 -0.210815,0.289952 -0.422085,0.579992 -0.625,0.875 -0.03872,0.05404 -0.08664,0.101983 -0.125,0.15625 -0.318116,0.46645 -0.632808,0.937127 -0.9375,1.40625 -0.06876,0.105871 -0.150463,0.206824 -0.21875,0.3125 -0.07968,0.130315 -0.141002,0.274857 -0.21875,0.40625 -0.13833,0.23065 -0.274136,0.453655 -0.40625,0.6875 -0.07535,0.134991 -0.145389,0.270228 -0.21875,0.40625 -0.801427,1.485951 -1.498916,3.03594 -2.0625,4.625 -0.274081,0.772789 -0.501189,1.552971 -0.71875,2.34375 -0.0088,0.03203 -0.02253,0.06169 -0.03125,0.09375 -0.218661,0.803893 -0.402346,1.619573 -0.5625,2.4375 -0.147965,0.755674 -0.277127,1.517199 -0.375,2.28125 -0.01735,0.135447 -0.04673,0.270603 -0.0625,0.40625 -0.06133,0.527456 -0.08754,1.063994 -0.125,1.59375 -0.02502,0.374084 -0.04946,0.750262 -0.0625,1.125 -0.01696,0.437407 -0.03056,0.874775 -0.03125,1.3125 10e-4,0.427305 0.0147,0.854254 0.03125,1.28125 0.01268,0.364364 0.0385,0.729999 0.0625,1.09375 0.03985,0.568596 0.0889,1.121583 0.15625,1.6875 0.0076,0.06346 0.02335,0.12408 0.03125,0.1875 0.203315,1.632569 0.50604,3.257511 0.9375,4.84375 0.0087,0.03206 0.02244,0.06172 0.03125,0.09375 0.217561,0.790779 0.444669,1.570961 0.71875,2.34375 0.281792,0.79453 0.596152,1.603973 0.9375,2.375 0.341348,0.771027 0.724287,1.507025 1.125,2.25 0.153891,0.281915 0.305963,0.566312 0.46875,0.84375 0.07193,0.12438 0.145105,0.251558 0.21875,0.375 0.05617,0.0927 0.09907,0.189088 0.15625,0.28125 0.05525,0.0855 0.131942,0.164362 0.1875,0.25 0.349421,0.559509 0.708408,1.11848 1.09375,1.65625 0.123817,0.180006 0.248365,0.352932 0.375,0.53125 0.08484,0.113289 0.163522,0.231546 0.25,0.34375 0.0094,0.01042 0.02187,0.02077 0.03125,0.03125 0.763524,0.853336 1.487915,1.878786 2.3125,2.78125 0.418515,0.420439 0.849447,0.816949 1.3125,1.1875 0.678,0.472352 1.43896,0.779894 2.34375,0.8125 0.147505,0.0046 0.295554,-0.01963 0.4375,-0.03125 1.468119,-0.222104 2.811917,-1.301284 3.34375,-2.6875 0.06793,-0.177052 0.116256,-0.345126 0.15625,-0.53125 0.03999,-0.186124 0.08456,-0.369552 0.09375,-0.5625 0.01838,-0.385896 -0.03422,-0.787787 -0.15625,-1.1875 -0.409701,-0.877312 -0.962907,-1.671419 -1.5625,-2.4375 -0.864885,-0.896844 -1.662289,-1.86192 -2.375,-2.875 -0.07421,-0.09271 -0.145992,-0.187538 -0.21875,-0.28125 -0.746667,-0.961702 -1.416046,-1.986516 -1.84375,-3.15625 -0.208884,-0.405799 -0.378515,-0.834452 -0.5625,-1.25 -0.835601,-1.887285 -1.41561,-3.853802 -1.75,-5.875 -0.211016,-1.275474 -0.356985,-2.550705 -0.375,-3.84375 -0.0049,-0.177824 0.0013,-0.353384 0,-0.53125 0.0012,-0.187245 -0.0052,-0.375299 0,-0.5625 0.01801,-1.293045 0.163984,-2.599526 0.375,-3.875 0.408017,-2.466231 1.15493,-4.876191 2.3125,-7.125 0.427704,-1.169734 1.097083,-2.163298 1.84375,-3.125 0.06682,-0.09794 0.15051,-0.184251 0.21875,-0.28125 0.708536,-1.007146 1.484804,-1.982662 2.34375,-2.875 0.605533,-0.771961 1.180626,-1.552857 1.59375,-2.4375 0.122029,-0.399713 0.174634,-0.801604 0.15625,-1.1875 -0.0092,-0.192948 -0.05376,-0.407626 -0.09375,-0.59375 -0.02789,-0.129812 -0.05206,-0.249435 -0.09375,-0.375 -0.01687,-0.05343 -0.04357,-0.103501 -0.0625,-0.15625 -0.54342,-1.416419 -1.932203,-2.498739 -3.4375,-2.6875 -0.136056,-0.01706 -0.268876,-0.02934 -0.40625,-0.03125 z m 42.312496,0 c -1.31355,0.09793 -2.60047,0.888487 -3.3125,2 -0.0669,0.115608 -0.13105,0.222629 -0.1875,0.34375 -0.0257,0.05075 -0.0391,0.104414 -0.0625,0.15625 -0.0525,0.124347 -0.1152,0.246642 -0.15625,0.375 -0.0338,0.103311 -0.0694,0.206026 -0.0937,0.3125 -0.0307,0.134116 -0.0478,0.267812 -0.0625,0.40625 -0.0409,0.384165 -0.005,0.781345 0.0937,1.1875 0.38247,0.973275 0.9522,1.828615 1.59375,2.65625 0.82863,0.857598 1.59187,1.785333 2.28125,2.75 0.0186,0.02268 0.0439,0.03977 0.0625,0.0625 0.86613,1.061483 1.6305,2.181628 2.09375,3.5 0.20891,0.405834 0.3785,0.834419 0.5625,1.25 1.36306,3.078499 2.07858,6.407747 2.125,9.75 0.002,0.07197 -0.001,0.146766 0,0.21875 0.001,0.220034 0.004,0.436222 0,0.65625 -4e-4,0.07335 0.001,0.145415 0,0.21875 -0.0464,3.342253 -0.76194,6.640251 -2.125,9.71875 -0.184,0.415581 -0.35359,0.844166 -0.5625,1.25 -0.43774,1.245784 -1.15973,2.303003 -1.96875,3.3125 -0.0471,0.05882 -0.0773,0.129056 -0.125,0.1875 -0.73203,1.034305 -1.5464,2.025572 -2.4375,2.9375 -0.60441,0.792453 -1.13552,1.603755 -1.5,2.53125 -0.0985,0.406155 -0.13463,0.803335 -0.0937,1.1875 0.0147,0.138438 0.0318,0.272134 0.0625,0.40625 0.0119,0.05197 0.0171,0.10501 0.0312,0.15625 0.0147,0.05254 0.0459,0.104236 0.0625,0.15625 0.0547,0.168459 0.14087,0.341271 0.21875,0.5 0.004,0.0087 -0.004,0.02255 0,0.03125 0.0625,0.125022 0.11195,0.225809 0.1875,0.34375 0.71757,1.120162 2.01922,1.912002 3.34375,2 0.0323,-9.43e-4 0.0612,0.0018 0.0937,0 0.2019,-0.0011 0.39457,8.01e-4 0.59375,-0.03125 0.57503,-0.09253 1.14304,-0.328674 1.625,-0.65625 0.0167,-0.01488 0.0458,-0.01633 0.0625,-0.03125 0.33531,-0.308311 0.64823,-0.615002 0.96875,-0.9375 0.12796,-0.12603 0.24947,-0.246653 0.375,-0.375 0.0562,-0.05856 0.10054,-0.128515 0.15625,-0.1875 0.379,-0.401224 0.76829,-0.79839 1.125,-1.21875 0.40916,-0.482158 0.80815,-0.994506 1.1875,-1.5 1.13806,-1.516482 2.13948,-3.121365 3,-4.8125 0.28684,-0.563712 0.55754,-1.139563 0.8125,-1.71875 0.0602,-0.136856 0.12905,-0.268598 0.1875,-0.40625 0.18337,-0.435529 0.36604,-0.900871 0.53125,-1.34375 0.44516,-1.185396 0.81251,-2.397352 1.125,-3.625 0.15625,-0.613824 0.28395,-1.253561 0.40625,-1.875 0.0389,-0.197738 0.0896,-0.395372 0.125,-0.59375 0.0751,-0.426374 0.15968,-0.853015 0.21875,-1.28125 0.0117,-0.08382 0.0201,-0.1661 0.0312,-0.25 0.0668,-0.511515 0.1126,-1.049681 0.15625,-1.5625 0.002,-0.02091 -0.002,-0.04159 0,-0.0625 0.0503,-0.599886 0.10682,-1.211015 0.125,-1.8125 9.2e-4,-0.03109 -8.3e-4,-0.06265 0,-0.09375 0.0168,-0.611412 0.0169,-1.201287 0,-1.8125 -5.6e-4,-0.02065 6.1e-4,-0.04185 0,-0.0625 -0.018,-0.611609 -0.0728,-1.234179 -0.125,-1.84375 -0.002,-0.02082 0.002,-0.04169 0,-0.0625 -0.0516,-0.606229 -0.10359,-1.208252 -0.1875,-1.8125 -0.0585,-0.417442 -0.14496,-0.834917 -0.21875,-1.25 -0.0367,-0.208343 -0.0845,-0.417231 -0.125,-0.625 -0.1223,-0.621439 -0.25,-1.229926 -0.40625,-1.84375 -0.43181,-1.696432 -0.97261,-3.358731 -1.65625,-4.96875 -0.0574,-0.136272 -0.12836,-0.270758 -0.1875,-0.40625 -0.50993,-1.158375 -1.08235,-2.313708 -1.71875,-3.40625 -0.63639,-1.092542 -1.33504,-2.145262 -2.09375,-3.15625 -0.37935,-0.505494 -0.77834,-0.986592 -1.1875,-1.46875 -0.40915,-0.482158 -0.84281,-0.949393 -1.28125,-1.40625 -0.12745,-0.132807 -0.2451,-0.275688 -0.375,-0.40625 -0.32053,-0.315708 -0.63311,-0.636905 -0.96875,-0.9375 -0.0187,-0.01317 -0.0436,-0.01842 -0.0625,-0.03125 -0.14806,-0.100635 -0.30847,-0.2017 -0.46875,-0.28125 -0.18071,-0.08969 -0.37037,-0.157179 -0.5625,-0.21875 -0.38425,-0.123143 -0.78371,-0.185232 -1.1875,-0.1875 -0.0418,0.0017 -0.0833,-0.0031 -0.125,0 z m -42.093746,1.96875 c 1.665723,0.05446 2.625943,2.448554 1.25,3.5625 -0.513831,0.499185 -1.001072,1.024317 -1.46875,1.5625 -0.423801,0.487692 -0.83341,0.983396 -1.21875,1.5 -0.112201,0.150422 -0.203589,0.316039 -0.3125,0.46875 -0.04704,0.06586 -0.109782,0.121237 -0.15625,0.1875 -0.291937,0.417352 -0.576303,0.848244 -0.84375,1.28125 -0.746434,1.208501 -1.385726,2.472423 -1.9375,3.78125 -1.103547,2.617653 -1.834538,5.390656 -2.125,8.21875 -0.05872,0.571714 -0.06939,1.144687 -0.09375,1.71875 -0.01044,0.344629 -0.03338,0.686407 -0.03125,1.03125 -0.0022,0.339845 0.02125,0.691606 0.03125,1.03125 0.02436,0.574063 0.03503,1.147036 0.09375,1.71875 0.290462,2.828094 1.021453,5.632347 2.125,8.25 0.539241,1.2791 1.181028,2.503875 1.90625,3.6875 0.02901,0.04734 0.0332,0.109086 0.0625,0.15625 0.350184,0.559147 0.736213,1.091931 1.125,1.625 0.0308,0.04219 0.06269,0.08299 0.09375,0.125 0.399287,0.541011 0.813026,1.08268 1.25,1.59375 0.01922,0.02219 0.0432,0.04037 0.0625,0.0625 0.458887,0.52622 0.934369,1.01121 1.4375,1.5 1.467673,1.188209 0.27537,3.821548 -1.59375,3.53125 -0.270117,-0.03889 -0.542343,-0.115715 -0.78125,-0.25 -0.147977,-0.133141 -0.292791,-0.269632 -0.4375,-0.40625 l -0.0625,0.0625 c -1.934451,-1.885415 -3.554818,-4.031598 -4.90625,-6.34375 -0.579225,-0.99099 -1.125546,-2.014407 -1.59375,-3.0625 -0.18488,-0.413862 -0.363936,-0.828624 -0.53125,-1.25 -0.04621,-0.112629 -0.07999,-0.230766 -0.125,-0.34375 -0.02469,-0.06138 -0.03824,-0.125972 -0.0625,-0.1875 -0.117234,-0.31088 -0.236048,-0.623126 -0.34375,-0.9375 -0.205483,-0.577971 -0.393299,-1.16172 -0.5625,-1.75 -0.426436,-1.482634 -0.737562,-3.004619 -0.9375,-4.53125 -0.09774,-0.746318 -0.174129,-1.498641 -0.21875,-2.25 -0.0069,-0.10404 0.0059,-0.208402 0,-0.3125 -0.02848,-0.573896 -0.06458,-1.144054 -0.0625,-1.71875 -0.0021,-0.574696 0.03402,-1.144854 0.0625,-1.71875 0.0059,-0.104098 -0.0069,-0.20846 0,-0.3125 0.04462,-0.751359 0.121007,-1.503682 0.21875,-2.25 0.198229,-1.51358 0.516654,-2.998289 0.9375,-4.46875 0.01164,-0.04166 0.01944,-0.08339 0.03125,-0.125 0.143082,-0.491915 0.300268,-0.984012 0.46875,-1.46875 0.129465,-0.386585 0.26243,-0.774871 0.40625,-1.15625 0.02396,-0.06076 0.03812,-0.126879 0.0625,-0.1875 0.03342,-0.08389 0.05967,-0.166305 0.09375,-0.25 0.579561,-1.472678 1.270967,-2.880123 2.0625,-4.25 0.05346,-0.09226 0.101873,-0.189533 0.15625,-0.28125 0.271752,-0.45926 0.579652,-0.898987 0.875,-1.34375 0.633621,-0.954166 1.321986,-1.871845 2.0625,-2.75 0.610636,-0.724136 1.224377,-1.460412 1.90625,-2.125 l 0.0625,0.0625 c 0.144709,-0.136618 0.289523,-0.273109 0.4375,-0.40625 0.238907,-0.134285 0.511133,-0.211109 0.78125,-0.25 0.11682,-0.01814 0.232702,-0.03488 0.34375,-0.03125 z m 41.968746,0.03125 c 0.66631,-0.01426 1.20924,0.251531 1.6875,0.625 l 0.0312,-0.03125 c 0.0415,0.04152 0.0837,0.08325 0.125,0.125 0.18497,0.158079 0.3313,0.343531 0.5,0.53125 0.0557,0.0589 0.101,0.12818 0.15625,0.1875 1.1279,1.210923 2.16672,2.504253 3.09375,3.875 0.34674,0.512688 0.68396,1.030311 1,1.5625 0.0858,0.144461 0.16654,0.291675 0.25,0.4375 0.007,0.01237 0.0242,0.01887 0.0312,0.03125 0.39683,0.678345 0.75382,1.388548 1.09375,2.09375 0.004,0.0083 -0.004,0.02291 0,0.03125 1.37711,2.8639 2.2995,5.926303 2.75,9.0625 0.001,0.01013 -0.002,0.02112 0,0.03125 0.22297,1.562781 0.34754,3.13916 0.34375,4.71875 4e-5,0.01031 -2e-5,0.02094 0,0.03125 -0.003,0.784524 -0.0356,1.561343 -0.0937,2.34375 -7.1e-4,0.01042 7.3e-4,0.02083 0,0.03125 -0.0589,0.78245 -0.13583,1.567593 -0.25,2.34375 -0.002,0.01024 0.001,0.02102 0,0.03125 -0.4505,3.136197 -1.37289,6.1986 -2.75,9.0625 -0.004,0.0086 0.004,0.02268 0,0.03125 -0.33654,0.709078 -0.70313,1.380664 -1.09375,2.0625 -0.007,0.01229 -0.024,0.01897 -0.0312,0.03125 -0.0835,0.145825 -0.16421,0.293039 -0.25,0.4375 -0.31604,0.532189 -0.65326,1.049812 -1,1.5625 -0.44887,0.663713 -0.93991,1.30946 -1.4375,1.9375 -0.50904,0.642494 -1.03696,1.273412 -1.59375,1.875 -0.25522,0.306288 -0.48934,0.602717 -0.78125,0.84375 -0.0226,0.01862 -0.0397,0.04447 -0.0625,0.0625 -0.48206,0.380536 -1.04505,0.608168 -1.71875,0.59375 -1.44698,-0.148606 -2.30037,-1.865917 -1.53125,-3.09375 1.80871,-1.861307 3.46213,-3.885883 4.78125,-6.125 0.21519,-0.365265 0.42857,-0.717494 0.625,-1.09375 0.004,-0.0084 -0.004,-0.02289 0,-0.03125 0.20026,-0.384662 0.38355,-0.791081 0.5625,-1.1875 0.1675,-0.348215 0.31784,-0.70802 0.46875,-1.0625 0.48905,-1.203272 0.92871,-2.428081 1.25,-3.6875 0.34625,-1.357232 0.60389,-2.731901 0.75,-4.125 0.002,-0.02068 -0.002,-0.04182 0,-0.0625 0.0459,-0.447375 0.0688,-0.894797 0.0937,-1.34375 0.005,-0.114743 -0.004,-0.228944 0,-0.34375 0.013,-0.375883 0.0332,-0.748821 0.0312,-1.125 0.002,-0.360433 -0.0191,-0.733588 -0.0312,-1.09375 -0.005,-0.124844 0.007,-0.25023 0,-0.375 -0.0209,-0.444637 -0.0517,-0.869433 -0.0937,-1.3125 -0.002,-0.02036 0.002,-0.04215 0,-0.0625 -0.1461,-1.393394 -0.40368,-2.798735 -0.75,-4.15625 -0.32129,-1.259419 -0.76095,-2.484228 -1.25,-3.6875 -0.15091,-0.35448 -0.30125,-0.714285 -0.46875,-1.0625 -0.18269,-0.404711 -0.35761,-0.79504 -0.5625,-1.1875 -0.1954,-0.379681 -0.41207,-0.754823 -0.625,-1.125 -1.31912,-2.239117 -2.97254,-4.263693 -4.78125,-6.125 -0.76912,-1.227833 0.0843,-2.945144 1.53125,-3.09375 z m -32.218746,8.03125 c -2.938886,0.10461 -4.490987,3.087248 -5.96875,5.21875 -0.888541,1.460015 -1.576177,3.022587 -2.03125,4.65625 -0.146246,0.525007 -0.272778,1.058243 -0.375,1.59375 -0.0076,0.04007 0.0074,0.08488 0,0.125 -0.07604,0.412043 -0.137257,0.833804 -0.1875,1.25 -0.02512,0.208121 -0.0438,0.416148 -0.0625,0.625 -0.03272,0.365384 -0.04934,0.726994 -0.0625,1.09375 -0.01226,0.341728 -0.03588,0.689252 -0.03125,1.03125 0.0022,0.115546 0.02711,0.228268 0.03125,0.34375 0.01391,0.387647 0.02673,0.770171 0.0625,1.15625 0.01444,0.155835 0.01324,0.313319 0.03125,0.46875 0.05434,0.468881 0.131711,0.942605 0.21875,1.40625 0.104335,0.555778 0.223309,1.111696 0.375,1.65625 0.455073,1.633663 1.142709,3.196235 2.03125,4.65625 1.477763,2.131502 3.029864,5.11414 5.96875,5.21875 2.224612,0.02556 3.874298,-1.881347 3.96875,-3.90625 -0.009,-0.105929 -0.01211,-0.20485 -0.03125,-0.3125 -0.328613,-1.177843 -1.003667,-2.205063 -1.75,-3.1875 -0.005,-0.0066 0.005,-0.02465 0,-0.03125 -1.240057,-1.630306 -2.637866,-3.170357 -2.75,-5.375 -0.122656,-0.571594 -0.190809,-1.144393 -0.21875,-1.71875 -0.01626,-0.207468 -0.02654,-0.416606 -0.03125,-0.625 1.77e-4,-0.02081 -2.95e-4,-0.04169 0,-0.0625 -0.0041,-0.239671 0.01956,-0.478496 0.03125,-0.71875 0.02794,-0.574357 0.09609,-1.147156 0.21875,-1.71875 0.112138,-2.204718 1.509911,-3.775885 2.75,-5.40625 0.0048,-0.0057 -0.0048,-0.02552 0,-0.03125 0.746333,-0.982437 1.421387,-1.978407 1.75,-3.15625 0.01725,-0.097 0.02223,-0.185639 0.03125,-0.28125 -0.07877,-2.036288 -1.732671,-3.994446 -3.96875,-3.96875 z m 22.625,0 c -2.278125,-0.108452 -3.956762,1.955209 -4.03125,4.03125 -7.5e-4,0.02091 4.24e-4,0.04159 0,0.0625 5.25e-4,0.01036 -6.05e-4,0.0209 0,0.03125 0.05448,0.933028 0.440963,1.827998 1.21875,2.5 2.383673,2.238551 3.538646,5.438429 3.499996,8.625 0.0387,3.186571 -1.116323,6.386449 -3.499996,8.625 -0.777787,0.672002 -1.164268,1.566972 -1.21875,2.5 -0.0012,0.02026 8.78e-4,0.04222 0,0.0625 2.78e-4,0.0099 -3.5e-4,0.02138 0,0.03125 0.07368,2.076583 1.752537,4.13973 4.03125,4.03125 0.663466,-0.0095 1.328426,-0.173786 1.906246,-0.5 4.00692,-3.232967 6.27098,-8.139681 6.6875,-13.21875 0.005,-0.08384 0.0269,-0.16609 0.0312,-0.25 0.008,-0.112752 -0.006,-0.230878 0,-0.34375 0.0165,-0.308016 0.0284,-0.629048 0.0312,-0.9375 -0.003,-0.314059 -0.014,-0.623906 -0.0312,-0.9375 -0.004,-0.104266 0.005,-0.208314 0,-0.3125 -0.005,-0.07334 -0.0254,-0.145468 -0.0312,-0.21875 -0.40982,-5.090037 -2.67245,-10.041722 -6.6875,-13.28125 -0.57782,-0.326214 -1.24278,-0.490486 -1.906246,-0.5 z m -0.03125,1.71875 c 0.319162,-0.0057 0.656166,0.061 0.968746,0.25 3.50956,3.0467 5.42221,7.543123 5.6875,12.125 0.006,0.09476 0.0264,0.186398 0.0312,0.28125 0.003,0.06175 -0.002,0.125724 0,0.1875 0.0191,0.464692 0.0154,0.941324 0,1.40625 -0.002,0.05266 0.003,0.103612 0,0.15625 -0.004,0.08461 -0.0266,0.16545 -0.0312,0.25 -0.25322,4.600539 -2.16423,9.097655 -5.6875,12.15625 -1.509401,0.912647 -3.379044,-0.727797 -2.968746,-2.28125 0.02692,-0.256601 0.10441,-0.516002 0.25,-0.75 1.665311,-1.86382 3.257056,-3.928808 3.906246,-6.40625 0.19729,-0.623739 0.3396,-1.23791 0.4375,-1.875 10e-4,-0.01021 -10e-4,-0.02103 0,-0.03125 0.0474,-0.313373 0.10071,-0.622714 0.125,-0.9375 7.4e-4,-0.01045 -7.1e-4,-0.0208 0,-0.03125 0.0228,-0.304828 0.0295,-0.632465 0.0312,-0.9375 -2e-5,-0.02097 1.2e-4,-0.04153 0,-0.0625 3.2e-4,-0.304358 -0.0112,-0.602816 -0.0312,-0.90625 -0.002,-0.02063 0.002,-0.04187 0,-0.0625 -0.0215,-0.303653 -0.0836,-0.604656 -0.125,-0.90625 -0.003,-0.02013 0.003,-0.04238 0,-0.0625 -0.0979,-0.626897 -0.24333,-1.261111 -0.4375,-1.875 -0.64919,-2.477442 -2.240935,-4.54243 -3.906246,-6.40625 -0.14559,-0.233998 -0.223081,-0.493399 -0.25,-0.75 -0.325328,-1.231744 0.778011,-2.509549 2,-2.53125 z m -22.4375,0.03125 c 1.236387,0.03882 1.898592,1.23298 1.78125,2.3125 0.01437,0.528447 -0.138466,1.055193 -0.59375,1.4375 -2.64243,2.514375 -4.001158,6.078124 -4.0625,9.65625 -7.15e-4,0.04174 3.63e-4,0.08326 0,0.125 1.13e-4,0.01046 -1.35e-4,0.02079 0,0.03125 -6.9e-5,0.01046 4.7e-5,0.02079 0,0.03125 0.05395,3.588661 1.412381,7.134559 4.0625,9.65625 0.459,0.385428 0.611575,0.935952 0.59375,1.46875 0.117342,1.07952 -0.544863,2.242434 -1.78125,2.28125 -2.075546,-0.0039 -3.041606,-2.41792 -4.1875,-3.8125 -1.737345,-2.692206 -2.612448,-5.85287 -2.6875,-9.03125 -0.02021,-0.442019 -0.01107,-0.870258 0,-1.3125 0.07934,-3.1694 0.95499,-6.315287 2.6875,-9 1.145894,-1.39458 2.111954,-3.83985 4.1875,-3.84375 z"
     inkscape:export-filename="E:\Dropbox\te_ndryshme\Programming\Git\TopeClient\Tope\graphics\tope_icon.png"
     inkscape:export-xdpi="255.97804"
     inkscape:export-ydpi="255.97804" />
  <path
     style="font-size:medium;font-style:normal;font-variant:normal;font-weight:normal;font-stretch:normal;text-indent:0;text-align:start;text-decoration:none;line-height:normal;letter-spacing:normal;word-spacing:normal;text-transform:none;direction:ltr;block-progression:tb;writing-mode:lr-tb;text-anchor:start;opacity:0.2;color:#000000;fill:#ffffff;fill-opacity:1;stroke:none;stroke-width:3.5;marker:none;visibility:visible;display:inline;overflow:visible;enable-background:accumulate;font-family:Abandoned Bitplane;-inkscape-font-specification:Abandoned Bitplane"
     id="path3745"
     inkscape:connector-curvature="0"
     d="m 30.560185,27.853956 a 4.0004001,4.0004001 0 0 1 -1.1875,2.375 c -5.029897,5.029897 -7.562126,11.567531 -7.625,18.125 0.298451,-6.220006 2.849781,-12.349781 7.625,-17.125 a 4.0004001,4.0004001 0 0 0 1.1875,-3.375 z m 34.374996,0 a 4.0004001,4.0004001 0 0 0 1.1875,3.375 c 4.77522,4.775219 7.32655,10.904994 7.625,17.125 -0.0629,-6.557469 -2.5951,-13.095103 -7.625,-18.125 a 4.0004001,4.0004001 0 0 1 -1.1875,-2.375 z m -24.531246,10 a 4.0004001,4.0004001 0 0 1 -1.1875,2.375 c -2.490901,2.490901 -3.669527,5.770052 -3.53125,9 0.120584,-2.894895 1.298822,-5.767572 3.53125,-8 a 4.0004001,4.0004001 0 0 0 1.1875,-3.375 z m 14.6875,0.03125 a 4.0004001,4.0004001 0 0 0 1.1875,3.34375 c 2.232428,2.232428 3.410666,5.105105 3.531246,8 0.13828,-3.229948 -1.040345,-6.509099 -3.531246,-9 a 4.0004001,4.0004001 0 0 1 -1.1875,-2.34375 z m -41.34375,11.21875 c -0.129749,8.887012 3.188035,17.813035 9.9375,24.5625 a 4.0216698,4.0216698 0 0 0 6.8125,-3.34375 4.0216698,4.0216698 0 0 1 -6.8125,2.34375 c -6.494861,-6.494861 -9.812645,-15.010725 -9.9375,-23.5625 z m 67.999996,0 c -0.12485,8.551775 -3.44264,17.067639 -9.9375,23.5625 a 4.0216698,4.0216698 0 0 1 -6.84375,-2.28125 4.0216698,4.0216698 0 0 0 6.84375,3.28125 c 6.74947,-6.749465 10.06725,-15.675488 9.9375,-24.5625 z m -53.999996,0.125 c -0.129572,5.290205 1.798488,10.610988 5.8125,14.625 a 4.0004001,4.0004001 0 0 0 6.84375,-3.25 4.0004001,4.0004001 0 0 1 -6.84375,2.25 c -3.760917,-3.760917 -5.689111,-8.668399 -5.8125,-13.625 z m 39.999996,0 c -0.12339,4.956601 -2.05158,9.864083 -5.8125,13.625 a 4.0004001,4.0004001 0 0 1 -6.843746,-2.3125 4.0004001,4.0004001 0 0 0 6.843746,3.3125 c 4.01402,-4.014012 5.94208,-9.334795 5.8125,-14.625 z"
     inkscape:export-filename="E:\Dropbox\te_ndryshme\Programming\Git\TopeClient\Tope\graphics\tope_icon.png"
     inkscape:export-xdpi="255.97804"
     inkscape:export-ydpi="255.97804" />
  <path
     style="font-size:medium;font-style:normal;font-variant:normal;font-weight:normal;font-stretch:normal;text-indent:0;text-align:start;text-decoration:none;line-height:normal;letter-spacing:normal;word-spacing:normal;text-transform:none;direction:ltr;block-progression:tb;writing-mode:lr-tb;text-anchor:start;opacity:0.3;color:#000000;fill:#000000;fill-opacity:1;stroke:none;stroke-width:3.5;marker:none;visibility:visible;display:inline;overflow:visible;enable-background:accumulate;font-family:Abandoned Bitplane;-inkscape-font-specification:Abandoned Bitplane"
     id="path3754"
     inkscape:connector-curvature="0"
     d="m 26.560185,23.291456 a 4.0004001,4.0004001 0 0 0 -2.875,1.25 c -6.749465,6.749465 -10.067249,15.675488 -9.9375,24.5625 0.124855,-8.551775 3.442639,-17.067639 9.9375,-23.5625 a 4.0004001,4.0004001 0 0 1 2.875,-1.25 4.0004001,4.0004001 0 0 1 3.375,1.8125 4.0004001,4.0004001 0 0 1 0.625,1.75 4.0004001,4.0004001 0 0 0 -0.625,-2.75 4.0004001,4.0004001 0 0 0 -3.375,-1.8125 z m 42.374996,0 a 4.0004001,4.0004001 0 0 0 -3.375,1.8125 4.0004001,4.0004001 0 0 0 -0.625,2.75 4.0004001,4.0004001 0 0 1 0.625,-1.75 4.0004001,4.0004001 0 0 1 3.375,-1.8125 4.0004001,4.0004001 0 0 1 2.875,1.25 c 6.49486,6.494861 9.81265,15.010725 9.9375,23.5625 0.12975,-8.887012 -3.18803,-17.813035 -9.9375,-24.5625 a 4.0004001,4.0004001 0 0 0 -2.875,-1.25 z m -32.468746,10.03125 a 4.0004001,4.0004001 0 0 0 -0.4375,0.03125 4.0004001,4.0004001 0 0 0 -2.46875,1.21875 c -4.016066,4.016067 -5.94426,9.363382 -5.8125,14.65625 0.121469,-4.959349 2.049529,-9.893279 5.8125,-13.65625 a 4.0004001,4.0004001 0 0 1 2.46875,-1.21875 4.0004001,4.0004001 0 0 1 3.28125,1.21875 4.0004001,4.0004001 0 0 1 1.09375,2.28125 4.0004001,4.0004001 0 0 0 -1.09375,-3.28125 4.0004001,4.0004001 0 0 0 -2.84375,-1.25 z m 22.625,0 a 4.0004001,4.0004001 0 0 0 -0.4375,0.03125 4.0004001,4.0004001 0 0 0 -2.46875,1.21875 4.0004001,4.0004001 0 0 0 -1.09375,3.3125 4.0004001,4.0004001 0 0 1 1.09375,-2.3125 4.0004001,4.0004001 0 0 1 2.46875,-1.21875 4.0004001,4.0004001 0 0 1 3.281246,1.21875 c 3.76297,3.762971 5.69103,8.696901 5.8125,13.65625 0.13176,-5.292868 -1.79643,-10.640183 -5.8125,-14.65625 a 4.0004001,4.0004001 0 0 0 -2.843746,-1.25 z m -23.40625,15.90625 c -0.134354,3.225485 1.043884,6.481385 3.53125,8.96875 a 4.0004001,4.0004001 0 0 1 1.1875,2.40625 4.0004001,4.0004001 0 0 0 -1.1875,-3.40625 c -2.228893,-2.228892 -3.407518,-5.078548 -3.53125,-7.96875 z m 24.124996,0 c -0.12373,2.890202 -1.302353,5.739858 -3.531246,7.96875 a 4.0004001,4.0004001 0 0 0 -1.1875,3.34375 4.0004001,4.0004001 0 0 1 1.1875,-2.34375 c 2.487366,-2.487365 3.665606,-5.743265 3.531246,-8.96875 z m -38.062496,0.625 c 0.06287,6.557469 2.595103,13.095103 7.625,18.125 a 4.0216698,4.0216698 0 0 1 1.125,2.28125 4.0216698,4.0216698 0 0 0 -1.125,-3.28125 c -4.775219,-4.775219 -7.326549,-10.904994 -7.625,-17.125 z m 51.999996,0 c -0.29845,6.220006 -2.84978,12.349781 -7.625,17.125 a 4.0216698,4.0216698 0 0 0 -1.15625,3.40625 4.0216698,4.0216698 0 0 1 1.15625,-2.40625 c 5.0299,-5.029897 7.56213,-11.567531 7.625,-18.125 z"
     inkscape:export-filename="E:\Dropbox\te_ndryshme\Programming\Git\TopeClient\Tope\graphics\tope_icon.png"
     inkscape:export-xdpi="255.97804"
     inkscape:export-ydpi="255.97804" />
  <path
     style="font-size:medium;font-style:normal;font-variant:normal;font-weight:normal;font-stretch:normal;text-indent:0;text-align:start;text-decoration:none;line-height:normal;letter-spacing:normal;word-spacing:normal;text-transform:none;direction:ltr;block-progression:tb;writing-mode:lr-tb;text-anchor:start;opacity:0.1;color:#000000;fill:#000000;fill-opacity:1;stroke:none;stroke-width:3.5;marker:none;visibility:visible;display:inline;overflow:visible;enable-background:accumulate;font-family:Abandoned Bitplane;-inkscape-font-specification:Abandoned Bitplane"
     id="path3763"
     inkscape:connector-curvature="0"
     d="m 26.560185,23.291456 a 4.0004001,4.0004001 0 0 0 -1.1875,0.1875 4.0216698,4.0216698 0 0 0 -0.34375,0.09375 4.0004001,4.0004001 0 0 0 -0.03125,0.03125 4.0004001,4.0004001 0 0 0 -1.3125,0.9375 c -3.724967,3.724967 -6.401577,8.102039 -8.03125,12.78125 -0.355433,1.02054 -0.681736,2.049454 -0.9375,3.09375 -0.0048,0.01973 0.0048,0.04276 0,0.0625 -0.129339,0.532205 -0.240279,1.088185 -0.34375,1.625 -0.09631,0.506961 -0.207993,1.02112 -0.28125,1.53125 -0.003,0.02055 0.003,0.04195 0,0.0625 -0.07371,0.520001 -0.137728,1.040147 -0.1875,1.5625 -0.002,0.02061 0.002,0.04189 0,0.0625 -0.04881,0.522276 -0.100121,1.038821 -0.125,1.5625 -0.0015,0.03064 0.0015,0.0631 0,0.09375 -0.02302,0.513742 -0.03125,1.048328 -0.03125,1.5625 -3.8e-5,0.02095 0,0.04155 0,0.0625 9.56e-4,0.524056 0.0064,1.038936 0.03125,1.5625 9.56e-4,0.02094 -9.95e-4,0.04156 0,0.0625 0.02583,0.523641 0.07524,1.040299 0.125,1.5625 0.0028,0.03057 -0.0029,0.06319 0,0.09375 0.05018,0.511937 0.114315,1.021617 0.1875,1.53125 0.0043,0.03078 -0.0044,0.06298 0,0.09375 0.07462,0.509966 0.183575,1.024504 0.28125,1.53125 0.0039,0.02042 -0.0039,0.04208 0,0.0625 0.204968,1.053212 0.476652,2.09159 0.78125,3.125 0.0057,0.01954 -0.0058,0.04297 0,0.0625 1.55579,5.244375 4.407416,10.188666 8.53125,14.3125 a 4.0004001,4.0004001 0 0 0 1.3125,0.90625 4.0216698,4.0216698 0 0 0 0.25,0.09375 4.0004001,4.0004001 0 0 0 0.125,0.0625 4.0216698,4.0216698 0 0 0 0.40625,0.09375 4.0004001,4.0004001 0 0 0 0.375,0.0625 4.0216698,4.0216698 0 0 0 0.4375,0.03125 4.0004001,4.0004001 0 0 0 0.75,-0.09375 4.0216698,4.0216698 0 0 0 0.03125,0 4.0004001,4.0004001 0 0 0 0.09375,-0.03125 4.0216698,4.0216698 0 0 0 0.3125,-0.09375 4.0216698,4.0216698 0 0 0 0.375,-0.125 4.0216698,4.0216698 0 0 0 1.53125,-1.15625 4.0004001,4.0004001 0 0 0 0.03125,-0.0625 4.0216698,4.0216698 0 0 0 -0.34375,-5.3125 c -3.183479,-3.183479 -5.368695,-6.985532 -6.5625,-11 -0.0058,-0.01949 0.0058,-0.04299 0,-0.0625 -0.239695,-0.813056 -0.43558,-1.609155 -0.59375,-2.4375 -0.07563,-0.388681 -0.161086,-0.765164 -0.21875,-1.15625 -0.003,-0.02077 0.003,-0.04173 0,-0.0625 -0.05528,-0.381247 -0.118034,-0.773359 -0.15625,-1.15625 -0.003,-0.03084 0.0029,-0.0629 0,-0.09375 -0.03777,-0.392452 -0.0739,-0.76276 -0.09375,-1.15625 -9.95e-4,-0.02073 9.45e-4,-0.04176 0,-0.0625 -0.0199,-0.414667 0,-0.834955 0,-1.25 9.95e-4,-0.414928 -0.02088,-0.835487 0,-1.25 0.01891,-0.39405 0.05688,-0.794457 0.09375,-1.1875 0.002,-0.02086 -0.0021,-0.04164 0,-0.0625 0.03686,-0.382996 0.102328,-0.77485 0.15625,-1.15625 0.0043,-0.02996 -0.0044,-0.06381 0,-0.09375 0.05673,-0.391194 0.144056,-0.767427 0.21875,-1.15625 0.0039,-0.02013 -0.004,-0.04238 0,-0.0625 0.07567,-0.388874 0.156343,-0.770433 0.25,-1.15625 0.0048,-0.0197 -0.0049,-0.04281 0,-0.0625 0.194206,-0.791792 0.44872,-1.569163 0.71875,-2.34375 1.251545,-3.590088 3.307133,-6.963383 6.1875,-9.84375 a 4.0216698,4.0216698 0 0 0 0.34375,-5.3125 4.0216698,4.0216698 0 0 0 -0.03125,-0.0625 4.0004001,4.0004001 0 0 0 -0.21875,-0.25 4.0216698,4.0216698 0 0 0 -1.3125,-0.90625 4.0216698,4.0216698 0 0 0 -0.375,-0.15625 4.0216698,4.0216698 0 0 0 -0.75,-0.15625 4.0004001,4.0004001 0 0 0 -0.03125,0 4.0216698,4.0216698 0 0 0 -0.4375,-0.03125 z m 42.187496,0 a 4.0216698,4.0216698 0 0 0 -0.21875,0.03125 4.0004001,4.0004001 0 0 0 -0.1875,0.03125 4.0216698,4.0216698 0 0 0 -0.40625,0.0625 4.0216698,4.0216698 0 0 0 -0.375,0.125 4.0216698,4.0216698 0 0 0 -0.375,0.15625 4.0004001,4.0004001 0 0 0 -0.15625,0.0625 4.0216698,4.0216698 0 0 0 -0.1875,0.125 4.0004001,4.0004001 0 0 0 -0.15625,0.09375 4.0216698,4.0216698 0 0 0 -0.1875,0.15625 4.0216698,4.0216698 0 0 0 -0.375,6.03125 c 2.88037,2.880367 4.93596,6.253662 6.1875,9.84375 0.27003,0.774587 0.52454,1.551958 0.71875,2.34375 0.005,0.01969 -0.005,0.0428 0,0.0625 0.0937,0.385817 0.17433,0.767376 0.25,1.15625 0.004,0.02012 -0.004,0.04237 0,0.0625 0.0747,0.388823 0.16203,0.765056 0.21875,1.15625 0.004,0.02994 -0.004,0.06379 0,0.09375 0.0539,0.3814 0.1194,0.773254 0.15625,1.15625 0.002,0.02086 -0.002,0.04164 0,0.0625 0.0369,0.393043 0.0748,0.79345 0.0937,1.1875 0.001,0.02061 -9.9e-4,0.04188 0,0.0625 0.018,0.393969 0,0.793207 0,1.1875 5e-5,0.02075 0,0.04175 0,0.0625 -9.5e-4,0.394292 0.0189,0.793566 0,1.1875 -9.5e-4,0.02074 9.9e-4,0.04177 0,0.0625 -0.0198,0.39349 -0.056,0.763798 -0.0937,1.15625 -0.003,0.03085 0.003,0.06291 0,0.09375 -0.0382,0.382891 -0.10097,0.775003 -0.15625,1.15625 -0.003,0.02077 0.003,0.04173 0,0.0625 -0.0577,0.391086 -0.14312,0.767569 -0.21875,1.15625 -0.15817,0.828345 -0.35405,1.624444 -0.59375,2.4375 -0.006,0.01951 0.006,0.04301 0,0.0625 -1.1938,4.014468 -3.37902,7.816521 -6.5625,11 a 4.0216698,4.0216698 0 0 0 0.0937,5.78125 4.0216698,4.0216698 0 0 0 0.28125,0.25 4.0216698,4.0216698 0 0 0 0.34375,0.21875 4.0004001,4.0004001 0 0 0 0.25,0.15625 4.0216698,4.0216698 0 0 0 0.4688,0.21875 4.0004001,4.0004001 0 0 0 0.1875,0.0625 4.0216698,4.0216698 0 0 0 0.59375,0.125 4.0004001,4.0004001 0 0 0 0.1875,0.03125 4.0216698,4.0216698 0 0 0 0.625,0.03125 4.0004001,4.0004001 0 0 0 0.1875,-0.03125 4.0216698,4.0216698 0 0 0 0.40625,-0.0625 4.0004001,4.0004001 0 0 0 0.75,-0.25 4.0004001,4.0004001 0 0 0 1.3125,-0.90625 c 4.12384,-4.123834 6.97546,-9.068125 8.53125,-14.3125 0.006,-0.01953 -0.006,-0.04296 0,-0.0625 0.3046,-1.03341 0.57628,-2.071788 0.78125,-3.125 0.004,-0.02042 -0.004,-0.04208 0,-0.0625 0.0977,-0.506746 0.20663,-1.021284 0.28125,-1.53125 0.004,-0.03077 -0.004,-0.06297 0,-0.09375 0.0732,-0.509633 0.13732,-1.019313 0.1875,-1.53125 0.003,-0.03056 -0.003,-0.06318 0,-0.09375 0.0498,-0.522201 0.0992,-1.038859 0.125,-1.5625 9.9e-4,-0.02094 -9.6e-4,-0.04156 0,-0.0625 0.0254,-0.534031 0.0308,-1.059217 0.0312,-1.59375 -5.2e-4,-0.565208 -0.003,-1.122884 -0.0312,-1.6875 -0.0249,-0.523679 -0.0762,-1.040224 -0.125,-1.5625 -0.002,-0.02061 0.002,-0.04189 0,-0.0625 -0.0498,-0.522353 -0.11379,-1.042499 -0.1875,-1.5625 -0.003,-0.02055 0.003,-0.04195 0,-0.0625 -0.0733,-0.51013 -0.18494,-1.024289 -0.28125,-1.53125 -0.10347,-0.536815 -0.21441,-1.092795 -0.34375,-1.625 -0.005,-0.01974 0.005,-0.04277 0,-0.0625 -0.25576,-1.044296 -0.58207,-2.07321 -0.9375,-3.09375 -1.62967,-4.679211 -4.30628,-9.056283 -8.03125,-12.78125 a 4.0004001,4.0004001 0 0 0 -0.59375,-0.53125 4.0004001,4.0004001 0 0 0 -0.34375,-0.21875 4.0004001,4.0004001 0 0 0 -0.5625,-0.25 4.0004001,4.0004001 0 0 0 -0.5625,-0.15625 4.0004001,4.0004001 0 0 0 -0.40625,-0.0625 4.0004001,4.0004001 0 0 0 -0.375,-0.03125 4.0216698,4.0216698 0 0 0 -0.0312,0 4.0004001,4.0004001 0 0 0 -0.1875,0 z m -42.499996,0.96875 c 0.08279,-0.009 0.07311,0.0048 0.15625,0 0.08314,-0.0048 0.07297,6.25e-4 0.15625,0 0.103275,-6.68e-4 0.08438,-0.0058 0.1875,0 0.103115,0.0058 0.08494,0.01906 0.1875,0.03125 0.102555,0.01219 0.08591,-0.01857 0.1875,0 0.101594,0.01857 0.08726,0.03763 0.1875,0.0625 0.100238,0.02487 0.08901,1.78e-4 0.1875,0.03125 0.09849,0.03107 0.09114,0.02535 0.1875,0.0625 0.09636,0.03715 0.06239,0.05066 0.15625,0.09375 0.09386,0.04309 0.09651,0.01364 0.1875,0.0625 0.09099,0.04886 0.06849,0.03931 0.15625,0.09375 0.08776,0.05444 0.07205,0.06519 0.15625,0.125 0.0842,0.05981 0.07595,0.0288 0.15625,0.09375 0.0803,0.06495 0.08016,0.05517 0.15625,0.125 0.07609,0.06983 0.05341,0.08181 0.125,0.15625 0.07159,0.07444 0.05819,0.04624 0.125,0.125 0.06681,0.07876 0.06323,0.07348 0.125,0.15625 0.06177,0.08277 0.03727,0.06979 0.09375,0.15625 0.0807,0.120279 0.08638,0.09188 0.15625,0.21875 0.06987,0.126873 0.06649,0.117504 0.125,0.25 0.05851,0.132496 0.04704,0.112897 0.09375,0.25 0.04671,0.137103 0.02796,0.109338 0.0625,0.25 0.03454,0.140662 0.04039,0.106857 0.0625,0.25 0.02211,0.143143 0.02173,0.136722 0.03125,0.28125 0.0095,0.144528 0.0032,0.105193 0,0.25 -0.0032,0.144807 -0.01545,0.137274 -0.03125,0.28125 -0.0158,0.143976 -0.0029,0.107956 -0.03125,0.25 -0.02833,0.142044 -0.02186,0.142227 -0.0625,0.28125 -0.04064,0.139023 -0.04111,0.115061 -0.09375,0.25 -0.05264,0.134939 -0.02952,0.08893 -0.09375,0.21875 -0.06423,0.129821 -0.04967,0.126291 -0.125,0.25 -0.07533,0.123709 -0.07039,0.1021 -0.15625,0.21875 -0.08586,0.11665 -0.06052,0.110052 -0.15625,0.21875 -0.09573,0.108698 -0.08264,0.08759 -0.1875,0.1875 a 0.96390861,0.96390861 0 0 0 -0.03125,0 c -2.967838,2.967837 -5.107821,6.452938 -6.40625,10.15625 -0.28854,0.822958 -0.5439,1.658092 -0.75,2.5 -0.09444,0.391539 -0.173371,0.792915 -0.25,1.1875 -0.004,0.0204 0.004,0.04209 0,0.0625 -0.0776,0.404527 -0.159851,0.811732 -0.21875,1.21875 -0.003,0.02025 0.0029,0.04225 0,0.0625 -0.05791,0.406841 -0.117011,0.810138 -0.15625,1.21875 -0.002,0.02063 0.002,0.04187 0,0.0625 -0.03827,0.408489 -0.07414,0.809206 -0.09375,1.21875 -0.02257,0.439974 -0.03022,0.872064 -0.03125,1.3125 0,0.430823 0.01064,0.850822 0.03125,1.28125 9.56e-4,0.02099 -0.001,0.04152 0,0.0625 0.02056,0.409506 0.05453,0.810333 0.09375,1.21875 0.0028,0.03051 -0.0029,0.06325 0,0.09375 0.03963,0.398189 0.09888,0.791035 0.15625,1.1875 0.0044,0.03082 -0.0045,0.06294 0,0.09375 0.0588,0.396734 0.142171,0.793175 0.21875,1.1875 0.0058,0.0302 -0.0059,0.06357 0,0.09375 0.07798,0.394376 0.154214,0.796218 0.25,1.1875 0.0049,0.02025 -0.005,0.04226 0,0.0625 0.09917,0.40121 0.225838,0.790255 0.34375,1.1875 0.0057,0.01938 -0.0057,0.04313 0,0.0625 0.118957,0.397565 0.268504,0.794629 0.40625,1.1875 1.298429,3.703312 3.438412,7.188413 6.40625,10.15625 a 0.96390861,0.96390861 0 0 0 0.03125,0 c 0.10486,0.09991 0.09177,0.0788 0.1875,0.1875 0.09573,0.108698 0.07039,0.1021 0.15625,0.21875 0.08586,0.11665 0.08092,0.09504 0.15625,0.21875 0.07533,0.123709 0.06077,0.120179 0.125,0.25 0.06423,0.12982 0.04111,0.08381 0.09375,0.21875 0.05264,0.134939 0.05311,0.110977 0.09375,0.25 0.04064,0.139023 0.03417,0.139206 0.0625,0.28125 0.02835,0.142044 0.01545,0.106024 0.03125,0.25 0.0158,0.143976 0.02805,0.136443 0.03125,0.28125 0.0032,0.144807 0.0095,0.105472 0,0.25 -0.0095,0.144528 -0.0091,0.138107 -0.03125,0.28125 -0.02211,0.143143 -0.02796,0.109338 -0.0625,0.25 -0.03454,0.140662 -0.01579,0.112897 -0.0625,0.25 -0.04671,0.137103 -0.03524,0.117504 -0.09375,0.25 -0.05851,0.132496 -0.05513,0.123127 -0.125,0.25 -0.06987,0.12687 -0.07555,0.09847 -0.15625,0.21875 -0.05648,0.08646 -0.03198,0.07348 -0.09375,0.15625 -0.06177,0.08277 -0.05819,0.07749 -0.125,0.15625 -0.06681,0.07876 -0.05341,0.05056 -0.125,0.125 -0.07159,0.07444 -0.04891,0.08642 -0.125,0.15625 -0.07609,0.06983 -0.07595,0.06005 -0.15625,0.125 -0.0803,0.06495 -0.07205,0.03394 -0.15625,0.09375 -0.0842,0.05981 -0.06849,0.07056 -0.15625,0.125 -0.08776,0.05444 -0.06526,0.04489 -0.15625,0.09375 -0.09099,0.04886 -0.09364,0.01941 -0.1875,0.0625 -0.09386,0.04309 -0.05989,0.0566 -0.15625,0.09375 -0.09636,0.03715 -0.08901,0.03143 -0.1875,0.0625 -0.09849,0.03107 -0.08726,0.0064 -0.1875,0.03125 -0.10024,0.02487 -0.08591,0.04393 -0.1875,0.0625 -0.10159,0.01857 -0.08495,-0.01219 -0.1875,0 -0.10256,0.01219 -0.08438,0.02545 -0.1875,0.03125 -0.10312,0.0058 -0.08423,6.68e-4 -0.1875,0 -0.08328,-6.25e-4 -0.07311,0.0048 -0.15625,0 -0.08314,-0.0048 -0.07346,0.009 -0.15625,0 -0.08279,-0.009 -0.04276,-0.01811 -0.125,-0.03125 -0.08224,-0.01314 -0.07478,-0.01399 -0.15625,-0.03125 -0.08147,-0.01726 -0.07575,-0.0099 -0.15625,-0.03125 -0.0805,-0.02135 -0.07693,-0.0059 -0.15625,-0.03125 -0.07932,-0.02536 -0.04705,-0.03318 -0.125,-0.0625 -0.07795,-0.02932 -0.07988,-0.02929 -0.15625,-0.0625 -0.07637,-0.03321 -0.05039,-0.02549 -0.125,-0.0625 -0.07461,-0.03701 -0.0836,-0.02179 -0.15625,-0.0625 -0.07265,-0.04071 -0.05449,-0.04943 -0.125,-0.09375 -0.07051,-0.04432 -0.05681,-0.01469 -0.125,-0.0625 -0.06819,-0.04781 -0.0593,-0.04257 -0.125,-0.09375 -0.0657,-0.05118 -0.06196,-0.03933 -0.125,-0.09375 -0.06304,-0.05442 -0.03352,-0.06748 -0.09375,-0.125 -0.05059,-0.04832 -0.05683,-0.06214 -0.09375,-0.09375 l -0.03125,0 c -3.626937,-3.631932 -6.232743,-7.90955 -7.8125,-12.46875 -0.169509,-0.486383 -0.353813,-0.976366 -0.5,-1.46875 -0.0058,-0.0195 0.0057,-0.04299 0,-0.0625 -0.145105,-0.491957 -0.284407,-0.971725 -0.40625,-1.46875 -0.0048,-0.01972 0.0048,-0.04277 0,-0.0625 -0.120918,-0.497197 -0.246093,-0.998654 -0.34375,-1.5 -0.0039,-0.02034 0.0039,-0.04216 0,-0.0625 -0.09665,-0.50105 -0.176571,-0.995724 -0.25,-1.5 -0.003,-0.0207 0.0029,-0.0418 0,-0.0625 -0.07105,-0.494406 -0.138757,-1.003367 -0.1875,-1.5 -0.0029,-0.03083 0.0029,-0.06291 0,-0.09375 -0.04735,-0.49651 -0.09994,-1.002145 -0.125,-1.5 -0.0015,-0.0311 0.0014,-0.06265 0,-0.09375 -0.02514,-0.528829 -0.03125,-1.033175 -0.03125,-1.5625 9.85e-4,-0.529205 0.0051,-1.06508 0.03125,-1.59375 0.02416,-0.508217 0.07762,-1.02439 0.125,-1.53125 0.002,-0.02079 -0.002,-0.04171 0,-0.0625 0.0483,-0.506546 0.115998,-0.995726 0.1875,-1.5 0.0029,-0.02047 -0.003,-0.04203 0,-0.0625 0.0711,-0.494726 0.156563,-1.008335 0.25,-1.5 0.100968,-0.531289 0.216698,-1.035795 0.34375,-1.5625 0.0048,-0.01971 -0.0048,-0.0428 0,-0.0625 1.381168,-5.679132 4.302741,-11.04666 8.71875,-15.46875 l 0.03125,0 c 0.03692,-0.03161 0.04316,-0.04543 0.09375,-0.09375 0.06023,-0.05752 0.03071,-0.07058 0.09375,-0.125 0.06304,-0.05442 0.0593,-0.04257 0.125,-0.09375 0.0657,-0.05118 0.05681,-0.04594 0.125,-0.09375 0.06819,-0.04781 0.05449,-0.01818 0.125,-0.0625 0.07051,-0.04432 0.05235,-0.05304 0.125,-0.09375 0.07265,-0.04071 0.08164,-0.02549 0.15625,-0.0625 0.07461,-0.03701 0.04863,-0.02929 0.125,-0.0625 0.07637,-0.03321 0.0783,-0.03318 0.15625,-0.0625 0.07795,-0.02932 0.04568,-0.03714 0.125,-0.0625 0.07932,-0.02536 0.07575,-0.0099 0.15625,-0.03125 0.0805,-0.02134 0.07478,-0.01399 0.15625,-0.03125 0.08147,-0.01726 0.07401,-0.01811 0.15625,-0.03125 0.08224,-0.01314 0.04221,-0.02226 0.125,-0.03125 z m 42.499996,0 c 0.10312,-0.0058 0.0842,-6.68e-4 0.1875,0 0.0833,6.25e-4 0.0731,-0.0048 0.15625,0 0.0831,0.0048 0.0735,-0.009 0.15625,0 0.0828,0.009 0.0428,0.01811 0.125,0.03125 0.0822,0.01314 0.0748,0.01399 0.15625,0.03125 0.0815,0.01726 0.0757,0.0099 0.15625,0.03125 0.0805,0.02134 0.0769,0.0059 0.15625,0.03125 0.0793,0.02536 0.047,0.03318 0.125,0.0625 0.078,0.02932 0.0799,0.02929 0.15625,0.0625 0.0764,0.03321 0.0504,0.02549 0.125,0.0625 0.0746,0.03701 0.0836,0.02179 0.15625,0.0625 0.0726,0.04071 0.0545,0.04943 0.125,0.09375 0.0705,0.04432 0.0568,0.01469 0.125,0.0625 0.0682,0.04781 0.0593,0.04257 0.125,0.09375 0.0657,0.05118 0.062,0.03933 0.125,0.09375 0.063,0.05442 0.0335,0.06748 0.0937,0.125 0.0506,0.04832 0.0568,0.06214 0.0937,0.09375 0.007,0.006 0.0221,-0.0097 0.0312,0 4.41601,4.42209 7.33758,9.789618 8.71875,15.46875 0.005,0.0197 -0.005,0.04279 0,0.0625 0.12705,0.526705 0.24278,1.031211 0.34375,1.5625 0.0934,0.491665 0.1789,1.005274 0.25,1.5 0.003,0.02047 -0.003,0.04203 0,0.0625 0.0715,0.504274 0.1392,0.993454 0.1875,1.5 0.002,0.02079 -0.002,0.04171 0,0.0625 0.0474,0.50686 0.10084,1.023033 0.125,1.53125 0.0266,0.539035 0.0308,1.085419 0.0312,1.625 -4.9e-4,0.518742 -0.007,1.012994 -0.0312,1.53125 -10e-4,0.0311 0.001,0.06265 0,0.09375 -0.0251,0.497855 -0.0777,1.00349 -0.125,1.5 -0.003,0.03084 0.003,0.06292 0,0.09375 -0.0487,0.496633 -0.11645,1.005594 -0.1875,1.5 -0.003,0.0207 0.003,0.0418 0,0.0625 -0.0734,0.504276 -0.15335,0.99895 -0.25,1.5 -0.004,0.02034 0.004,0.04216 0,0.0625 -0.0977,0.501346 -0.22283,1.002803 -0.34375,1.5 -0.005,0.01973 0.005,0.04278 0,0.0625 -0.12184,0.497025 -0.26114,0.976793 -0.40625,1.46875 -0.006,0.01951 0.006,0.043 0,0.0625 -0.14619,0.492384 -0.33049,0.982367 -0.5,1.46875 -1.57976,4.5592 -4.18556,8.836818 -7.8125,12.46875 l -0.0312,0 c -0.0369,0.03161 -0.0432,0.04543 -0.0937,0.09375 -0.0602,0.05752 -0.0308,0.07058 -0.0937,0.125 -0.063,0.05442 -0.0593,0.04257 -0.125,0.09375 -0.0657,0.05118 -0.0568,0.04594 -0.125,0.09375 -0.0682,0.04781 -0.0545,0.01818 -0.125,0.0625 -0.0705,0.04432 -0.0524,0.05304 -0.125,0.09375 -0.0727,0.04071 -0.0816,0.02549 -0.15625,0.0625 -0.0746,0.03701 -0.0486,0.02929 -0.125,0.0625 -0.0763,0.03321 -0.0782,0.03318 -0.15625,0.0625 -0.078,0.02932 -0.0457,0.03714 -0.125,0.0625 -0.0794,0.02535 -0.0757,0.0099 -0.15625,0.03125 -0.0805,0.02135 -0.0747,0.01399 -0.15625,0.03125 -0.0814,0.01726 -0.074,0.01811 -0.15625,0.03125 -0.0822,0.01314 -0.0422,0.02225 -0.125,0.03125 -0.0828,0.009 -0.0731,-0.0048 -0.15625,0 -0.0831,0.0048 -0.0729,-6.25e-4 -0.15625,0 -0.1033,6.68e-4 -0.0844,0.0058 -0.1875,0 -0.1031,-0.0058 -0.0849,-0.01906 -0.1875,-0.03125 -0.1025,-0.01219 -0.0859,0.01857 -0.1875,0 -0.1016,-0.01857 -0.0873,-0.03763 -0.1875,-0.0625 -0.1002,-0.02485 -0.089,-1.8e-4 -0.1875,-0.03125 -0.0985,-0.03107 -0.0911,-0.02535 -0.1875,-0.0625 -0.0964,-0.03715 -0.0624,-0.05066 -0.15625,-0.09375 -0.0939,-0.04309 -0.0965,-0.01364 -0.1875,-0.0625 -0.091,-0.04886 -0.0684,-0.03931 -0.15625,-0.09375 -0.0877,-0.05444 -0.0721,-0.06519 -0.15625,-0.125 -0.0841,-0.05981 -0.076,-0.0288 -0.15625,-0.09375 -0.0803,-0.06495 -0.0802,-0.05517 -0.15625,-0.125 -0.0761,-0.06983 -0.0534,-0.08181 -0.125,-0.15625 -0.0716,-0.07444 -0.0582,-0.04624 -0.125,-0.125 -0.0668,-0.07876 -0.0632,-0.07348 -0.125,-0.15625 -0.0617,-0.08277 -0.0373,-0.06979 -0.0937,-0.15625 -0.0807,-0.12028 -0.0863,-0.09188 -0.15625,-0.21875 -0.0699,-0.126873 -0.0665,-0.117504 -0.125,-0.25 -0.0585,-0.132496 -0.047,-0.112897 -0.0937,-0.25 -0.0467,-0.137103 -0.028,-0.109338 -0.0625,-0.25 -0.0345,-0.140662 -0.0404,-0.106857 -0.0625,-0.25 -0.0222,-0.143143 -0.0212,-0.136722 -0.0312,-0.28125 -0.01,-0.144528 -0.003,-0.105193 0,-0.25 0.003,-0.144807 0.0155,-0.137274 0.0312,-0.28125 0.0157,-0.143976 0.003,-0.107956 0.0312,-0.25 0.0283,-0.142044 0.0219,-0.142227 0.0625,-0.28125 0.0406,-0.139023 0.0412,-0.115061 0.0937,-0.25 0.0526,-0.13494 0.0296,-0.08893 0.0937,-0.21875 0.0642,-0.129821 0.0497,-0.126291 0.125,-0.25 0.0754,-0.12371 0.0704,-0.1021 0.15625,-0.21875 0.0858,-0.11665 0.0606,-0.110052 0.15625,-0.21875 0.0957,-0.1087 0.0827,-0.08759 0.1875,-0.1875 a 0.96390861,0.96390861 0 0 0 0.0312,0 c 2.96784,-2.967837 5.10782,-6.452938 6.40625,-10.15625 0.13775,-0.392871 0.28729,-0.789935 0.40625,-1.1875 0.006,-0.01937 -0.006,-0.04312 0,-0.0625 0.11791,-0.397245 0.24458,-0.78629 0.34375,-1.1875 0.005,-0.02024 -0.005,-0.04225 0,-0.0625 0.0958,-0.391282 0.17202,-0.793124 0.25,-1.1875 0.006,-0.03018 -0.006,-0.06355 0,-0.09375 0.0766,-0.394325 0.15995,-0.790766 0.21875,-1.1875 0.004,-0.03081 -0.004,-0.06293 0,-0.09375 0.0574,-0.396465 0.11662,-0.789311 0.15625,-1.1875 0.003,-0.0305 -0.003,-0.06324 0,-0.09375 0.0392,-0.408417 0.0732,-0.809244 0.0937,-1.21875 0.001,-0.02098 -9.6e-4,-0.04151 0,-0.0625 0.0206,-0.430428 0.0312,-0.850427 0.0312,-1.28125 -10e-4,-0.440436 -0.009,-0.872526 -0.0312,-1.3125 -0.0196,-0.409544 -0.0555,-0.810261 -0.0937,-1.21875 -0.002,-0.02063 0.002,-0.04187 0,-0.0625 -0.0392,-0.408612 -0.0983,-0.811909 -0.15625,-1.21875 -0.003,-0.02025 0.003,-0.04225 0,-0.0625 -0.0589,-0.407018 -0.14115,-0.814223 -0.21875,-1.21875 -0.004,-0.02041 0.004,-0.0421 0,-0.0625 -0.0766,-0.394585 -0.15556,-0.795961 -0.25,-1.1875 -0.2061,-0.841908 -0.46146,-1.677042 -0.75,-2.5 -1.29843,-3.703312 -3.43841,-7.188413 -6.40625,-10.15625 a 0.96390861,0.96390861 0 0 0 -0.0312,0 c -0.10481,-0.09991 -0.0918,-0.0788 -0.1875,-0.1875 -0.0957,-0.108698 -0.0704,-0.1021 -0.15625,-0.21875 -0.0859,-0.11665 -0.0809,-0.09504 -0.15625,-0.21875 -0.0753,-0.123709 -0.0608,-0.120179 -0.125,-0.25 -0.0642,-0.129821 -0.0412,-0.08381 -0.0937,-0.21875 -0.0526,-0.134939 -0.0532,-0.110977 -0.0937,-0.25 -0.0406,-0.139023 -0.0342,-0.139206 -0.0625,-0.28125 -0.0283,-0.142044 -0.0156,-0.106024 -0.0312,-0.25 -0.0158,-0.143976 -0.0281,-0.136443 -0.0312,-0.28125 -0.003,-0.144807 -0.01,-0.105472 0,-0.25 0.01,-0.144528 0.009,-0.138107 0.0312,-0.28125 0.0221,-0.143143 0.028,-0.109338 0.0625,-0.25 0.0345,-0.140662 0.0158,-0.112897 0.0625,-0.25 0.0467,-0.137103 0.0353,-0.117504 0.0937,-0.25 0.0585,-0.132496 0.0551,-0.123127 0.125,-0.25 0.0699,-0.126873 0.0756,-0.09847 0.15625,-0.21875 0.0565,-0.08646 0.032,-0.07348 0.0937,-0.15625 0.0618,-0.08277 0.0582,-0.07749 0.125,-0.15625 0.0668,-0.07876 0.0534,-0.05056 0.125,-0.125 0.0716,-0.07444 0.0489,-0.08642 0.125,-0.15625 0.0761,-0.06983 0.076,-0.06005 0.15625,-0.125 0.0803,-0.06495 0.0721,-0.03394 0.15625,-0.09375 0.0842,-0.05981 0.0685,-0.07056 0.15625,-0.125 0.0878,-0.05444 0.0653,-0.04489 0.15625,-0.09375 0.091,-0.04886 0.0936,-0.01941 0.1875,-0.0625 0.0939,-0.04309 0.0599,-0.0566 0.15625,-0.09375 0.0964,-0.03715 0.089,-0.03143 0.1875,-0.0625 0.0985,-0.03107 0.0873,-0.0064 0.1875,-0.03125 0.10024,-0.02487 0.0859,-0.04393 0.1875,-0.0625 0.10159,-0.01857 0.085,0.01219 0.1875,0 0.10255,-0.01219 0.0844,-0.02548 0.1875,-0.03125 z m -32.281246,9.0625 a 4.0004001,4.0004001 0 0 0 -0.4375,0.03125 4.0004001,4.0004001 0 0 0 -2.46875,1.21875 c -3.40243,3.402431 -5.324696,7.750362 -5.75,12.21875 -0.04836,0.596361 -0.09831,1.183263 -0.09375,1.78125 -3.93e-4,0.05155 0,0.104697 0,0.15625 0.0082,0.537599 0.04277,1.089377 0.09375,1.625 0.425304,4.468388 2.34757,8.816319 5.75,12.21875 a 4.0004001,4.0004001 0 0 0 2.46875,1.21875 4.0004001,4.0004001 0 0 0 0.4375,0.03125 4.0004001,4.0004001 0 0 0 2.84375,-1.25 4.0004001,4.0004001 0 0 0 1.125,-2.59375 4.0004001,4.0004001 0 0 0 0,-0.09375 4.0004001,4.0004001 0 0 0 -1.21875,-2.6875 c -2.1386,-2.138599 -3.29945,-4.855516 -3.5,-7.625 -0.03189,-0.329904 -0.02694,-0.668931 -0.03125,-1 0.0043,-0.331069 -6.4e-4,-0.670096 0.03125,-1 0.19567,-2.777524 1.35542,-5.480423 3.5,-7.625 a 4.0004001,4.0004001 0 0 0 1.1875,-2.40625 4.0004001,4.0004001 0 0 0 0.0312,-0.1875 4.0004001,4.0004001 0 0 0 0,-0.21875 4.0004001,4.0004001 0 0 0 -1.125,-2.5625 4.0004001,4.0004001 0 0 0 -2.84375,-1.25 z m 22.625,0 a 4.0004001,4.0004001 0 0 0 -0.4375,0.03125 4.0004001,4.0004001 0 0 0 -2.46875,1.21875 4.0004001,4.0004001 0 0 0 -1.125,2.5 4.0004001,4.0004001 0 0 0 0,0.40625 4.0004001,4.0004001 0 0 0 1.21875,2.46875 c 2.14458,2.144577 3.304326,4.847476 3.499996,7.625 0.0269,0.2784 0.024,0.564422 0.0312,0.84375 0,0.38278 0.006,0.774842 -0.0312,1.15625 -0.20055,2.769484 -1.361396,5.486401 -3.499996,7.625 a 4.0004001,4.0004001 0 0 0 -1.21875,2.46875 4.0004001,4.0004001 0 0 0 0,0.375 4.0004001,4.0004001 0 0 0 0,0.03125 4.0004001,4.0004001 0 0 0 1.125,2.5 4.0004001,4.0004001 0 0 0 2.46875,1.21875 4.0004001,4.0004001 0 0 0 0.4375,0.03125 4.0004001,4.0004001 0 0 0 2.843746,-1.25 c 3.40243,-3.402431 5.3247,-7.750362 5.75,-12.21875 0.0608,-0.638341 0.0937,-1.296742 0.0937,-1.9375 -0.008,-0.537599 -0.0428,-1.089377 -0.0937,-1.625 -0.4253,-4.468388 -2.34757,-8.816319 -5.75,-12.21875 a 4.0004001,4.0004001 0 0 0 -2.843746,-1.25 z m -22.6875,0.6875 c 0.08225,-8.4e-4 0.07405,0.02795 0.15625,0.03125 0.08225,0.0033 0.07425,-0.0073 0.15625,0 0.08195,0.0073 0.07475,-0.0114 0.15625,0 0.08145,0.0114 0.07545,0.01581 0.15625,0.03125 0.0808,0.01544 0.0451,0.01182 0.125,0.03125 0.07995,0.01943 0.07735,0.0079 0.15625,0.03125 0.07885,0.02338 0.07865,0.03522 0.15625,0.0625 0.0776,0.02728 0.0488,0.0314 0.125,0.0625 0.0762,0.0311 0.0505,0.02765 0.125,0.0625 0.07455,0.03485 0.08355,0.02399 0.15625,0.0625 0.0727,0.03851 0.0543,0.02043 0.125,0.0625 0.0707,0.04207 0.0565,0.04821 0.125,0.09375 0.0685,0.04554 0.0588,0.04486 0.125,0.09375 0.0662,0.04889 0.0613,0.01038 0.125,0.0625 0.0637,0.05212 0.064,0.06978 0.125,0.125 0.061,0.05522 0.03555,0.03557 0.09375,0.09375 0.0581,0.05818 0.03855,0.03275 0.09375,0.09375 0.0552,0.061 0.0729,0.06133 0.125,0.125 0.0521,0.06367 0.0136,0.05882 0.0625,0.125 0.0488,0.06618 0.04825,0.05647 0.09375,0.125 0.0455,0.06853 0.05165,0.05429 0.09375,0.125 0.0421,0.07071 0.024,0.05229 0.0625,0.125 0.0385,0.07271 0.0276,0.08172 0.0625,0.15625 0.0349,0.07453 0.0314,0.04883 0.0625,0.125 0.0311,0.07617 0.0352,0.04737 0.0625,0.125 0.0273,0.07763 0.0391,0.07736 0.0625,0.15625 0.0232,0.07889 0.01185,0.0763 0.03125,0.15625 0.0194,0.07995 0.01585,0.04418 0.03125,0.125 0.0154,0.08082 0.01985,0.07476 0.03125,0.15625 0.0114,0.08149 -0.007,0.0743 0,0.15625 0.007,0.08195 -0.003,0.07404 0,0.15625 0.0032,0.08221 0.03209,0.07398 0.03125,0.15625 -8e-4,0.08227 -0.02625,0.04287 -0.03125,0.125 -0.005,0.08213 0.009,0.07446 0,0.15625 -4.1e-4,0.0131 3e-4,0.01501 0,0.03125 -0.003,0.162417 0.0186,0.119879 0,0.28125 -0.0186,0.161371 -0.0282,0.153729 -0.0625,0.3125 -0.0343,0.158771 -0.04405,0.126607 -0.09375,0.28125 -0.0497,0.154643 -0.02915,0.132224 -0.09375,0.28125 -0.0646,0.149026 -0.0461,0.108027 -0.125,0.25 -0.0789,0.141973 -0.0638,0.116446 -0.15625,0.25 -0.0925,0.133554 -0.0824,0.126152 -0.1875,0.25 -0.10511,0.123848 -0.0708,0.105799 -0.1875,0.21875 a 0.96390861,0.96390861 0 0 0 -0.03125,0 c -2.22346,2.223456 -3.47207,5.047119 -3.75,7.9375 -0.03475,0.361426 -0.05817,0.731021 -0.0625,1.09375 0.0043,0.362729 0.02775,0.732324 0.0625,1.09375 0.27793,2.890381 1.52654,5.714044 3.75,7.9375 a 0.96390861,0.96390861 0 0 0 0.03125,0 c 0.1167,0.112951 0.08239,0.0949 0.1875,0.21875 0.1051,0.123848 0.095,0.116446 0.1875,0.25 0.09245,0.133554 0.07735,0.108027 0.15625,0.25 0.0789,0.141973 0.0604,0.100974 0.125,0.25 0.0646,0.149026 0.04405,0.126607 0.09375,0.28125 0.0497,0.154643 0.05945,0.122479 0.09375,0.28125 0.0343,0.158771 0.0439,0.151129 0.0625,0.3125 0.0186,0.161371 -0.003,0.118833 0,0.28125 0.0018,0.01043 -0.0017,0.01552 0,0.03125 0.009,0.08179 -0.005,0.07412 0,0.15625 0.005,0.08213 0.03045,0.04273 0.03125,0.125 8.4e-4,0.08227 -0.02805,0.07404 -0.03125,0.15625 -0.003,0.08221 0.007,0.0743 0,0.15625 -0.007,0.08195 0.0114,0.07476 0,0.15625 -0.0114,0.08149 -0.01585,0.07543 -0.03125,0.15625 -0.0154,0.08082 -0.01185,0.04505 -0.03125,0.125 -0.0194,0.07995 -0.008,0.07736 -0.03125,0.15625 -0.0234,0.07889 -0.0352,0.07862 -0.0625,0.15625 -0.0273,0.07763 -0.0314,0.04883 -0.0625,0.125 -0.0311,0.07617 -0.0276,0.05047 -0.0625,0.125 -0.0349,0.07453 -0.024,0.08354 -0.0625,0.15625 -0.0385,0.07271 -0.0204,0.05429 -0.0625,0.125 -0.0421,0.07071 -0.04825,0.05647 -0.09375,0.125 -0.0455,0.06853 -0.04495,0.05882 -0.09375,0.125 -0.0489,0.06618 -0.0104,0.06133 -0.0625,0.125 -0.0521,0.06367 -0.0698,0.064 -0.125,0.125 -0.0552,0.061 -0.03565,0.03557 -0.09375,0.09375 -0.0582,0.05818 -0.03275,0.03853 -0.09375,0.09375 -0.061,0.05522 -0.0613,0.07288 -0.125,0.125 -0.0637,0.05212 -0.0588,0.01361 -0.125,0.0625 -0.0662,0.04889 -0.0565,0.04821 -0.125,0.09375 -0.0685,0.04554 -0.0543,0.05168 -0.125,0.09375 -0.0707,0.04207 -0.0523,0.02399 -0.125,0.0625 -0.0727,0.03851 -0.0817,0.02765 -0.15625,0.0625 -0.0745,0.03485 -0.0488,0.0314 -0.125,0.0625 -0.0762,0.0311 -0.0474,0.03522 -0.125,0.0625 -0.0776,0.02728 -0.0774,0.03912 -0.15625,0.0625 -0.0789,0.02338 -0.0763,0.01182 -0.15625,0.03125 -0.0799,0.01943 -0.0442,0.01581 -0.125,0.03125 -0.0808,0.01544 -0.0748,0.01985 -0.15625,0.03125 -0.0815,0.0114 -0.0743,-0.0073 -0.15625,0 -0.082,0.0073 -0.074,-0.0033 -0.15625,0 -0.0822,0.0033 -0.074,0.03209 -0.15625,0.03125 -0.0823,-8.37e-4 -0.0429,-0.02632 -0.125,-0.03125 -0.0821,-0.0049 -0.0745,0.009 -0.15625,0 -0.0818,-0.009 -0.075,-0.01819 -0.15625,-0.03125 -0.0812,-0.01306 -0.0758,-0.01417 -0.15625,-0.03125 -0.0805,-0.01708 -0.0767,-0.0102 -0.15625,-0.03125 -0.0795,-0.02105 -0.0466,-0.0063 -0.125,-0.03125 -0.0784,-0.02498 -0.0792,-0.03365 -0.15625,-0.0625 -0.0771,-0.02885 -0.0495,0.0014 -0.125,-0.03125 -0.0755,-0.03264 -0.0824,-0.02614 -0.15625,-0.0625 -0.0738,-0.03636 -0.0531,-0.05377 -0.125,-0.09375 -0.0719,-0.03998 -0.0552,-0.019 -0.125,-0.0625 -0.0698,-0.0435 -0.0574,-0.04683 -0.125,-0.09375 -0.0676,-0.04692 -0.0598,-0.04353 -0.125,-0.09375 -0.0652,-0.05022 -0.0624,-0.04035 -0.125,-0.09375 -0.0626,-0.0534 -0.03395,-0.03731 -0.09375,-0.09375 -0.0599,-0.05644 -0.068,-0.0344 -0.125,-0.09375 a 0.96390861,0.96390861 0 0 0 0,-0.03125 c -3.3114,-3.311405 -5.118883,-7.557794 -5.46875,-11.90625 -0.05785,-0.607117 -0.09375,-1.234342 -0.09375,-1.84375 0.0081,-0.50633 0.04568,-1.026769 0.09375,-1.53125 0.349867,-4.348456 2.15735,-8.594845 5.46875,-11.90625 a 0.96390861,0.96390861 0 0 0 0,-0.03125 c 0.057,-0.05935 0.0651,-0.03731 0.125,-0.09375 0.0598,-0.05644 0.03115,-0.04035 0.09375,-0.09375 0.0626,-0.0534 0.0598,-0.04353 0.125,-0.09375 0.0652,-0.05022 0.0574,-0.04683 0.125,-0.09375 0.0676,-0.04692 0.0552,-0.05025 0.125,-0.09375 0.0698,-0.0435 0.0531,-0.02252 0.125,-0.0625 0.0719,-0.03998 0.0512,-0.05739 0.125,-0.09375 0.07385,-0.03636 0.08075,-0.02986 0.15625,-0.0625 0.0755,-0.03265 0.0479,-0.0024 0.125,-0.03125 0.07705,-0.02885 0.07785,-0.03752 0.15625,-0.0625 0.0784,-0.02495 0.0455,-0.0102 0.125,-0.03125 0.07955,-0.02105 0.07575,-0.01417 0.15625,-0.03125 0.08045,-0.01708 0.07505,-0.01819 0.15625,-0.03125 0.08125,-0.01306 0.07445,-0.02225 0.15625,-0.03125 0.08175,-0.009 0.07415,0.0049 0.15625,0 0.0821,-0.0049 0.0427,-0.03041 0.125,-0.03125 z m 22.6875,0 c 0.0823,8.4e-4 0.0429,0.02635 0.125,0.03125 0.0821,0.0049 0.0744,-0.009 0.15625,0 0.0817,0.009 0.0751,0.01819 0.156246,0.03125 0.0812,0.01306 0.0757,0.01417 0.15625,0.03125 0.0804,0.01708 0.0768,0.0102 0.15625,0.03125 0.0795,0.02105 0.0466,0.0063 0.125,0.03125 0.0784,0.02498 0.0791,0.03365 0.15625,0.0625 0.0771,0.02885 0.0495,-0.0014 0.125,0.03125 0.0756,0.03264 0.0824,0.02614 0.15625,0.0625 0.0738,0.03636 0.0531,0.05377 0.125,0.09375 0.0719,0.03998 0.0552,0.019 0.125,0.0625 0.0698,0.0435 0.0574,0.04683 0.125,0.09375 0.0676,0.04692 0.0598,0.04353 0.125,0.09375 0.0652,0.05022 0.0624,0.04035 0.125,0.09375 0.0626,0.0534 0.0339,0.03731 0.0937,0.09375 0.0599,0.05644 0.068,0.0344 0.125,0.09375 a 0.96390861,0.96390861 0 0 0 0,0.03125 c 3.31141,3.311405 5.11888,7.557794 5.46875,11.90625 0.0481,0.504481 0.0856,1.02492 0.0937,1.53125 0,0.609408 -0.0359,1.236633 -0.0937,1.84375 -0.34987,4.348456 -2.15734,8.594845 -5.46875,11.90625 a 0.96390861,0.96390861 0 0 0 0,0.03125 c -0.057,0.05935 -0.0651,0.03731 -0.125,0.09375 -0.0599,0.05644 -0.0311,0.04035 -0.0937,0.09375 -0.0626,0.0534 -0.0598,0.04353 -0.125,0.09375 -0.0652,0.05022 -0.0574,0.04683 -0.125,0.09375 -0.0676,0.04692 -0.0552,0.05025 -0.125,0.09375 -0.0698,0.0435 -0.0531,0.02252 -0.125,0.0625 -0.0719,0.03998 -0.0512,0.05739 -0.125,0.09375 -0.0738,0.03636 -0.0807,0.02986 -0.15625,0.0625 -0.0755,0.03264 -0.0479,0.0024 -0.125,0.03125 -0.0771,0.02885 -0.0779,0.03752 -0.15625,0.0625 -0.0784,0.02498 -0.0455,0.0102 -0.125,0.03125 -0.0795,0.02105 -0.0758,0.01417 -0.15625,0.03125 -0.0805,0.01708 -0.075,0.01819 -0.15625,0.03125 -0.0812,0.01306 -0.0745,0.02225 -0.156246,0.03125 -0.0818,0.009 -0.0741,-0.0049 -0.15625,0 -0.0821,0.0049 -0.0427,0.03041 -0.125,0.03125 -0.0823,8.37e-4 -0.074,-0.028 -0.15625,-0.03125 -0.0822,-0.0033 -0.0743,0.0073 -0.15625,0 -0.082,-0.0073 -0.0748,0.0114 -0.15625,0 -0.0815,-0.0114 -0.0754,-0.01581 -0.15625,-0.03125 -0.0808,-0.01544 -0.0451,-0.01182 -0.125,-0.03125 -0.0799,-0.01943 -0.0774,-0.0079 -0.15625,-0.03125 -0.0789,-0.02338 -0.0786,-0.03522 -0.15625,-0.0625 -0.0776,-0.02728 -0.0488,-0.0314 -0.125,-0.0625 -0.0762,-0.0311 -0.0505,-0.02765 -0.125,-0.0625 -0.0745,-0.03485 -0.0835,-0.02399 -0.15625,-0.0625 -0.0727,-0.03851 -0.0543,-0.02043 -0.125,-0.0625 -0.0707,-0.04207 -0.0565,-0.04821 -0.125,-0.09375 -0.0685,-0.04554 -0.0588,-0.04486 -0.125,-0.09375 -0.0662,-0.04889 -0.0613,-0.01038 -0.125,-0.0625 -0.0637,-0.05212 -0.064,-0.06978 -0.125,-0.125 -0.061,-0.05522 -0.0357,-0.03557 -0.0937,-0.09375 -0.0582,-0.05818 -0.0386,-0.03275 -0.0937,-0.09375 -0.0552,-0.061 -0.0729,-0.06133 -0.125,-0.125 -0.0521,-0.06367 -0.0136,-0.05882 -0.0625,-0.125 -0.0489,-0.06618 -0.0482,-0.05647 -0.0937,-0.125 -0.0455,-0.06853 -0.0517,-0.05429 -0.0937,-0.125 -0.0421,-0.07071 -0.024,-0.05229 -0.0625,-0.125 -0.0385,-0.07271 -0.0276,-0.08172 -0.0625,-0.15625 -0.0349,-0.07453 -0.0314,-0.04883 -0.0625,-0.125 -0.0311,-0.07617 -0.0352,-0.04737 -0.0625,-0.125 -0.0273,-0.07763 -0.0391,-0.07736 -0.0625,-0.15625 -0.0234,-0.07889 -0.0118,-0.0763 -0.0312,-0.15625 -0.0194,-0.07995 -0.0159,-0.04418 -0.0312,-0.125 -0.0154,-0.08082 -0.0199,-0.07476 -0.0312,-0.15625 -0.0114,-0.08149 0.007,-0.0743 0,-0.15625 -0.007,-0.08195 0.003,-0.07404 0,-0.15625 -0.003,-0.08221 -0.0322,-0.07398 -0.0312,-0.15625 8.4e-4,-0.08227 0.0263,-0.04287 0.0312,-0.125 0.005,-0.08213 -0.009,-0.07446 0,-0.15625 0.002,-0.01573 -0.002,-0.02082 0,-0.03125 0.003,-0.162417 -0.0186,-0.119879 0,-0.28125 0.0186,-0.161371 0.0282,-0.153729 0.0625,-0.3125 0.0343,-0.158771 0.044,-0.126607 0.0937,-0.28125 0.0497,-0.154643 0.0292,-0.132224 0.0937,-0.28125 0.0646,-0.149026 0.0461,-0.108027 0.125,-0.25 0.079,-0.141973 0.0637,-0.116446 0.15625,-0.25 0.0925,-0.133554 0.0824,-0.126152 0.1875,-0.25 0.1051,-0.12385 0.0708,-0.105799 0.1875,-0.21875 a 0.96390861,0.96390861 0 0 0 0.0312,0 c 2.22346,-2.223456 3.472066,-5.047119 3.749996,-7.9375 0.0397,-0.412912 0.0625,-0.835576 0.0625,-1.25 -0.007,-0.311006 -0.0327,-0.627559 -0.0625,-0.9375 -0.27793,-2.890381 -1.526536,-5.714044 -3.749996,-7.9375 a 0.96390861,0.96390861 0 0 0 -0.0312,0 c -0.11674,-0.112951 -0.0824,-0.0949 -0.1875,-0.21875 -0.10511,-0.123848 -0.095,-0.116446 -0.1875,-0.25 -0.0925,-0.133554 -0.0773,-0.108027 -0.15625,-0.25 -0.0789,-0.141973 -0.0604,-0.100974 -0.125,-0.25 -0.0646,-0.149026 -0.044,-0.126607 -0.0937,-0.28125 -0.0497,-0.154643 -0.0594,-0.122479 -0.0937,-0.28125 -0.0343,-0.158771 -0.0439,-0.151129 -0.0625,-0.3125 -0.0186,-0.161371 0.003,-0.118833 0,-0.28125 -3e-4,-0.01624 4.1e-4,-0.01815 0,-0.03125 -0.009,-0.08179 0.005,-0.07412 0,-0.15625 -0.005,-0.08213 -0.0304,-0.04273 -0.0312,-0.125 -9e-4,-0.08227 0.0282,-0.07404 0.0312,-0.15625 0.003,-0.08221 -0.007,-0.0743 0,-0.15625 0.007,-0.08195 -0.0114,-0.07476 0,-0.15625 0.0113,-0.08149 0.0159,-0.07543 0.0312,-0.15625 0.0154,-0.08082 0.0118,-0.04505 0.0312,-0.125 0.0194,-0.07995 0.008,-0.07736 0.0312,-0.15625 0.0234,-0.07889 0.0352,-0.07862 0.0625,-0.15625 0.0273,-0.07763 0.0314,-0.04883 0.0625,-0.125 0.0311,-0.07617 0.0276,-0.05047 0.0625,-0.125 0.0349,-0.07453 0.024,-0.08354 0.0625,-0.15625 0.0385,-0.07271 0.0204,-0.05429 0.0625,-0.125 0.042,-0.07071 0.0482,-0.05647 0.0937,-0.125 0.0455,-0.06853 0.0448,-0.05882 0.0937,-0.125 0.0489,-0.06618 0.0104,-0.06133 0.0625,-0.125 0.0521,-0.06367 0.0698,-0.064 0.125,-0.125 0.0552,-0.061 0.0356,-0.03557 0.0937,-0.09375 0.0581,-0.05818 0.0327,-0.03853 0.0937,-0.09375 0.061,-0.05522 0.0613,-0.07288 0.125,-0.125 0.0637,-0.05212 0.0588,-0.01361 0.125,-0.0625 0.0662,-0.04889 0.0565,-0.04821 0.125,-0.09375 0.0685,-0.04554 0.0543,-0.05168 0.125,-0.09375 0.0707,-0.04207 0.0523,-0.02399 0.125,-0.0625 0.0727,-0.03851 0.0817,-0.02765 0.15625,-0.0625 0.0745,-0.03485 0.0488,-0.0314 0.125,-0.0625 0.0762,-0.0311 0.0474,-0.03522 0.125,-0.0625 0.0777,-0.02728 0.0773,-0.03912 0.15625,-0.0625 0.0789,-0.02335 0.0764,-0.01182 0.15625,-0.03125 0.0799,-0.01943 0.0442,-0.01581 0.125,-0.03125 0.0808,-0.01544 0.0747,-0.01985 0.15625,-0.03125 0.0815,-0.0114 0.0743,0.0073 0.15625,0 0.082,-0.0073 0.074,0.0033 0.15625,0 0.0823,-0.0033 0.0739,-0.03209 0.15625,-0.03125 z"
     inkscape:export-filename="E:\Dropbox\te_ndryshme\Programming\Git\TopeClient\Tope\graphics\tope_icon.png"
     inkscape:export-xdpi="255.97804"
     inkscape:export-ydpi="255.97804" />
  <g
     id="g4074"
     transform="translate(17.581158,-107.34354)"
     inkscape:export-filename="E:\Dropbox\te_ndryshme\Programming\Git\TopeClient\Tope\graphics\tope_icon.png"
     inkscape:export-xdpi="255.97804"
     inkscape:export-ydpi="255.97804">
    <path
       id="path4070"
       d="m 30.429489,147.8129 c -4.930068,0 -8.96875,4.03869 -8.96875,8.96875 0,4.93007 4.038682,8.96875 8.96875,8.96875 4.930068,0 8.96875,-4.03868 8.96875,-8.96875 0,-4.93006 -4.038682,-8.96875 -8.96875,-8.96875 z"
       style="opacity:0.1;color:#000000;fill:#000000;fill-opacity:1;fill-rule:nonzero;stroke:none;stroke-width:1;marker:none;visibility:visible;display:inline;overflow:visible;enable-background:accumulate"
       inkscape:connector-curvature="0" />
    <path
       id="path4066"
       d="m 30.429489,148.84415 c -4.369998,0 -7.9375,3.56751 -7.9375,7.9375 0,4.37 3.567502,7.9375 7.9375,7.9375 4.369998,0 7.9375,-3.5675 7.9375,-7.9375 0,-4.36999 -3.567502,-7.9375 -7.9375,-7.9375 z"
       style="opacity:0.15;color:#000000;fill:#000000;fill-opacity:1;fill-rule:nonzero;stroke:none;stroke-width:1;marker:none;visibility:visible;display:inline;overflow:visible;enable-background:accumulate"
       inkscape:connector-curvature="0" />
    <path
       id="path4062"
       d="m 30.429489,149.78165 c -3.865993,0 -7,3.13401 -7,7 0,3.866 3.134007,7 7,7 3.865993,0 7,-3.134 7,-7 0,-3.86599 -3.134007,-7 -7,-7 z"
       style="opacity:0.3;color:#000000;fill:#000000;fill-opacity:1;fill-rule:nonzero;stroke:none;stroke-width:1;marker:none;visibility:visible;display:inline;overflow:visible;enable-background:accumulate"
       inkscape:connector-curvature="0" />
    <path
       id="path3663"
       d="m 37.429489,155.78165 a 7,7 0 0 1 -14,0 7,7 0 1 1 14,0 z"
       style="color:#000000;fill:url(#radialGradient4082);fill-opacity:1;fill-rule:nonzero;stroke:none;stroke-width:1;marker:none;visibility:visible;display:inline;overflow:visible;enable-background:accumulate"
       inkscape:connector-curvature="0" />
    <path
       id="path3868"
       d="m 24.460739,155.40665 c -0.0075,0.12259 -0.03125,0.25053 -0.03125,0.375 0,3.31371 2.686291,6 6,6 3.313709,0 6,-2.68629 6,-6 0,-0.12447 -0.02378,-0.25241 -0.03125,-0.375 -0.30726,3.02554 -2.862148,5.375 -5.96875,5.375 -3.106602,0 -5.66149,-2.34946 -5.96875,-5.375 z"
       style="opacity:0.3;color:#000000;fill:url(#radialGradient4084);fill-opacity:1;fill-rule:nonzero;stroke:none;stroke-width:1;marker:none;visibility:visible;display:inline;overflow:visible;enable-background:accumulate"
       inkscape:connector-curvature="0" />
    <path
       id="path3893"
       d="m 35.429489,153.28165 a 5,3.5000001 0 0 1 -10,0 5,3.5000001 0 1 1 10,0 z"
       style="color:#000000;fill:url(#linearGradient4086);fill-opacity:1;fill-rule:nonzero;stroke:none;stroke-width:1;marker:none;visibility:visible;display:inline;overflow:visible;enable-background:accumulate"
       inkscape:connector-curvature="0" />
  </g>
</svg>
